<svg width="512" height="512" viewBox="0 0 512 512" fill="none" xmlns="http://www.w3.org/2000/svg">
<rect width="512" height="512" rx="69" fill="#131883"/>
<path d="M87.218 336.44V139.832C87.218 126.008 89.6927 114.659 94.642 105.784C99.762 96.7387 106.93 90.0827 116.146 85.816C125.533 81.3787 136.541 79.16 149.17 79.16C161.458 79.16 171.954 81.0373 180.658 84.792C189.362 88.376 196.018 93.8373 200.626 101.176C205.405 108.344 207.794 117.389 207.794 128.312C207.794 136.504 206.343 143.587 203.442 149.56C200.711 155.533 196.786 160.312 191.666 163.896C186.717 167.48 180.743 169.955 173.746 171.32V172.088C182.621 173.283 190.301 175.757 196.786 179.512C203.442 183.267 208.562 188.557 212.146 195.384C215.901 202.04 217.778 210.573 217.778 220.984C217.778 232.931 215.047 243.171 209.586 251.704C204.295 260.067 197.127 266.467 188.082 270.904C179.207 275.341 169.309 277.56 158.386 277.56C152.925 277.56 148.402 277.219 144.818 276.536C141.234 276.024 137.906 275.171 134.834 273.976C131.933 272.781 128.775 271.331 125.362 269.624V336.44H87.218ZM151.218 247.096C159.751 247.096 166.407 244.536 171.186 239.416C175.965 234.125 178.354 226.872 178.354 217.656C178.354 210.659 176.903 205.027 174.002 200.76C171.271 196.323 167.773 193.165 163.506 191.288C159.239 189.24 154.802 188.216 150.194 188.216H138.674V159.544H147.89C152.498 159.544 156.423 158.435 159.666 156.216C162.909 153.827 165.383 150.669 167.09 146.744C168.797 142.648 169.65 138.04 169.65 132.92C169.65 124.899 167.602 118.925 163.506 115C159.41 110.904 154.546 108.856 148.914 108.856C144.135 108.856 139.954 109.88 136.37 111.928C132.786 113.976 130.055 117.304 128.178 121.912C126.301 126.349 125.362 132.408 125.362 140.088V238.392C129.629 241.123 133.81 243.256 137.906 244.792C142.002 246.328 146.439 247.096 151.218 247.096ZM218.987 316.13C222.614 316.13 225.787 316.98 228.507 318.68C231.341 320.267 233.664 322.477 235.477 325.31C237.404 328.143 238.821 331.43 239.727 335.17C240.747 338.91 241.257 342.877 241.257 347.07C241.257 352.963 240.237 359.253 238.197 365.94C236.157 372.627 233.154 378.917 229.187 384.81C225.334 390.703 220.574 395.52 214.907 399.26C209.354 403 203.007 404.87 195.867 404.87C190.767 404.87 186.631 403.793 183.457 401.64C180.284 399.487 177.961 396.427 176.487 392.46C175.014 388.493 174.277 383.79 174.277 378.35C174.277 375.403 174.391 372.003 174.617 368.15C174.957 364.183 175.297 360.16 175.637 356.08C175.977 352 176.261 348.203 176.487 344.69C176.827 341.177 176.997 338.4 176.997 336.36C176.997 334.433 176.657 333.243 175.977 332.79C175.411 332.223 174.844 331.94 174.277 331.94C173.031 331.94 171.727 332.903 170.367 334.83C169.007 336.757 167.591 340.27 166.117 345.37L156.937 342.65C157.391 340.27 158.241 337.55 159.487 334.49C160.847 331.43 162.604 328.54 164.757 325.82C166.911 322.987 169.461 320.663 172.407 318.85C175.354 317.037 178.754 316.13 182.607 316.13C187.027 316.13 190.371 317.037 192.637 318.85C195.017 320.663 196.661 323.043 197.567 325.99C198.474 328.937 198.927 332.223 198.927 335.85C198.927 339.477 198.757 343.443 198.417 347.75C198.191 352.057 197.851 356.42 197.397 360.84C196.944 365.147 196.547 369.17 196.207 372.91C195.981 376.65 195.867 379.823 195.867 382.43C195.867 383.563 195.981 384.923 196.207 386.51C196.547 387.983 197.114 389.287 197.907 390.42C198.814 391.553 200.174 392.12 201.987 392.12C205.047 392.007 208.107 390.817 211.167 388.55C214.341 386.283 217.231 383.167 219.837 379.2C222.557 375.233 224.711 370.643 226.297 365.43C227.884 360.103 228.677 354.493 228.677 348.6C228.677 347.353 228.564 346.107 228.337 344.86C228.111 343.5 227.771 342.253 227.317 341.12C226.977 339.873 226.524 338.797 225.957 337.89C225.504 336.87 224.994 336.077 224.427 335.51C223.407 336.303 222.217 337.04 220.857 337.72C219.611 338.287 218.194 338.57 216.607 338.57C214.341 338.57 212.017 337.777 209.637 336.19C207.257 334.49 206.067 331.77 206.067 328.03C206.067 326.443 206.464 324.743 207.257 322.93C208.051 321.003 209.411 319.417 211.337 318.17C213.264 316.81 215.814 316.13 218.987 316.13ZM251.362 446.35V435.3C254.195 435.3 256.292 434.62 257.652 433.26C259.125 432.013 260.145 430.2 260.712 427.82C261.392 425.553 261.845 422.947 262.072 420C263.318 406.74 264.338 395.293 265.132 385.66C265.925 375.913 266.492 367.753 266.832 361.18C267.285 354.607 267.568 349.393 267.682 345.54C267.908 341.573 268.022 338.683 268.022 336.87C268.022 334.83 267.738 333.527 267.172 332.96C266.718 332.28 266.152 331.94 265.472 331.94C264.225 331.94 262.922 332.903 261.562 334.83C260.202 336.757 258.785 340.27 257.312 345.37L248.132 342.65C248.585 340.27 249.322 337.55 250.342 334.49C251.362 331.43 252.778 328.54 254.592 325.82C256.405 322.987 258.615 320.663 261.222 318.85C263.942 317.037 267.172 316.13 270.912 316.13C274.538 316.13 277.768 317.207 280.602 319.36C283.435 321.513 284.852 325.593 284.852 331.6C284.852 333.753 284.795 335.51 284.682 336.87C284.568 338.23 284.398 339.873 284.172 341.8H284.342C287.062 335 290.065 329.73 293.352 325.99C296.752 322.25 300.208 319.7 303.722 318.34C307.235 316.867 310.465 316.13 313.412 316.13C318.852 316.13 323.442 317.49 327.182 320.21C330.922 322.93 333.755 326.727 335.682 331.6C337.608 336.473 338.572 342.14 338.572 348.6C338.572 359.367 336.815 369 333.302 377.5C329.902 386 324.632 392.687 317.492 397.56C310.465 402.433 301.512 404.87 290.632 404.87C290.065 404.87 289.215 404.87 288.082 404.87C287.062 404.87 286.098 404.813 285.192 404.7C284.965 410.14 284.738 414.673 284.512 418.3C284.285 422.04 284.058 425.1 283.832 427.48C283.605 429.973 283.378 432.127 283.152 433.94C284.965 433.713 287.005 433.543 289.272 433.43C291.538 433.43 293.238 433.43 294.372 433.43V446.35H251.362ZM292.672 393.65C296.525 393.65 299.755 392.573 302.362 390.42C305.082 388.153 307.292 385.263 308.992 381.75C310.692 378.237 311.995 374.44 312.902 370.36C313.922 366.28 314.602 362.37 314.942 358.63C315.282 354.777 315.452 351.49 315.452 348.77C315.452 344.577 315.112 341.233 314.432 338.74C313.752 336.247 312.788 334.433 311.542 333.3C310.295 332.167 308.822 331.6 307.122 331.6C304.855 331.6 302.702 332.507 300.662 334.32C298.735 336.133 296.922 338.853 295.222 342.48C293.635 346.107 292.218 350.583 290.972 355.91C289.725 361.237 288.648 367.413 287.742 374.44C287.402 377.273 287.062 380.22 286.722 383.28C286.382 386.227 286.098 389.343 285.872 392.63C287.118 392.97 288.365 393.253 289.612 393.48C290.972 393.593 291.992 393.65 292.672 393.65ZM421.395 404.87C415.161 404.87 410.911 403.17 408.645 399.77C406.491 396.37 405.415 391.667 405.415 385.66C405.415 382.26 405.641 378.463 406.095 374.27C406.548 369.963 407.001 365.6 407.455 361.18C408.021 356.76 408.531 352.623 408.985 348.77C409.438 344.803 409.665 341.517 409.665 338.91C409.665 337.21 409.495 335.85 409.155 334.83C408.815 333.697 408.305 332.903 407.625 332.45C406.945 331.997 406.038 331.77 404.905 331.77C402.865 331.77 400.711 333.017 398.445 335.51C396.291 338.003 394.195 341.403 392.155 345.71C390.115 349.903 388.301 354.607 386.715 359.82C385.128 364.92 383.825 370.19 382.805 375.63C381.898 380.957 381.445 386 381.445 390.76C381.445 392.233 381.501 394.33 381.615 397.05C381.728 399.657 381.841 401.64 381.955 403H360.025C359.798 400.62 359.628 398.977 359.515 398.07C359.515 397.05 359.515 395.973 359.515 394.84C359.515 392.46 359.628 389.683 359.855 386.51C360.195 383.223 360.591 379.71 361.045 375.97C361.498 372.117 361.951 368.32 362.405 364.58C362.745 361.52 363.085 358.573 363.425 355.74C363.878 352.793 364.275 350.073 364.615 347.58C364.955 344.973 365.181 342.707 365.295 340.78C365.521 338.853 365.635 337.38 365.635 336.36C365.635 334.433 365.351 333.243 364.785 332.79C364.331 332.223 363.821 331.94 363.255 331.94C362.008 331.94 360.705 332.903 359.345 334.83C357.985 336.757 356.568 340.27 355.095 345.37L345.745 342.65C346.311 340.27 347.105 337.55 348.125 334.49C349.145 331.43 350.561 328.54 352.375 325.82C354.188 322.987 356.398 320.663 359.005 318.85C361.611 317.037 364.785 316.13 368.525 316.13C371.018 316.13 373.341 316.583 375.495 317.49C377.648 318.397 379.405 319.983 380.765 322.25C382.125 324.403 382.805 327.52 382.805 331.6C382.805 333.753 382.691 335.51 382.465 336.87C382.238 338.23 382.011 339.873 381.785 341.8H381.955C384.675 335 387.621 329.73 390.795 325.99C394.081 322.25 397.425 319.7 400.825 318.34C404.338 316.867 407.738 316.13 411.025 316.13C415.898 316.13 419.808 317.207 422.755 319.36C425.701 321.513 427.855 324.573 429.215 328.54C430.688 332.393 431.425 336.983 431.425 342.31C431.425 346.39 431.085 350.923 430.405 355.91C429.725 360.897 428.988 365.883 428.195 370.87C427.515 375.857 427.175 380.447 427.175 384.64C427.175 386.453 427.458 387.643 428.025 388.21C428.591 388.777 429.158 389.06 429.725 389.06C430.971 389.06 432.275 388.097 433.635 386.17C434.995 384.243 436.411 380.73 437.885 375.63L447.065 378.35C446.611 380.73 445.705 383.45 444.345 386.51C443.098 389.57 441.398 392.517 439.245 395.35C437.091 398.07 434.541 400.337 431.595 402.15C428.648 403.963 425.248 404.87 421.395 404.87Z" fill="white"/>
</svg>
