<svg width="512" height="512" viewBox="0 0 512 512" fill="none" xmlns="http://www.w3.org/2000/svg">
<rect width="512" height="512" rx="69" fill="#181818" fill-opacity="0.533333"/>
<path d="M65.6248 347V231.8C65.6248 223.7 67.0748 217.05 69.9748 211.85C72.9748 206.55 77.1748 202.65 82.5748 200.15C88.0748 197.55 94.5248 196.25 101.925 196.25C109.125 196.25 115.275 197.35 120.375 199.55C125.475 201.65 129.375 204.85 132.075 209.15C134.875 213.35 136.275 218.65 136.275 225.05C136.275 229.85 135.425 234 133.725 237.5C132.125 241 129.825 243.8 126.825 245.9C123.925 248 120.425 249.45 116.325 250.25V250.7C121.525 251.4 126.025 252.85 129.825 255.05C133.725 257.25 136.725 260.35 138.825 264.35C141.025 268.25 142.125 273.25 142.125 279.35C142.125 286.35 140.525 292.35 137.325 297.35C134.225 302.25 130.025 306 124.725 308.6C119.525 311.2 113.725 312.5 107.325 312.5C104.125 312.5 101.475 312.3 99.3748 311.9C97.2748 311.6 95.3248 311.1 93.5248 310.4C91.8248 309.7 89.9748 308.85 87.9748 307.85V347H65.6248ZM103.125 294.65C108.125 294.65 112.025 293.15 114.825 290.15C117.625 287.05 119.025 282.8 119.025 277.4C119.025 273.3 118.175 270 116.475 267.5C114.875 264.9 112.825 263.05 110.325 261.95C107.825 260.75 105.225 260.15 102.525 260.15H95.7748V243.35H101.175C103.875 243.35 106.175 242.7 108.075 241.4C109.975 240 111.425 238.15 112.425 235.85C113.425 233.45 113.925 230.75 113.925 227.75C113.925 223.05 112.725 219.55 110.325 217.25C107.925 214.85 105.075 213.65 101.775 213.65C98.9748 213.65 96.5248 214.25 94.4248 215.45C92.3248 216.65 90.7248 218.6 89.6248 221.3C88.5248 223.9 87.9748 227.45 87.9748 231.95V289.55C90.4748 291.15 92.9248 292.4 95.3248 293.3C97.7248 294.2 100.325 294.65 103.125 294.65ZM245.851 311H220.651L194.851 233H217.951L232.951 285.05C233.051 285.15 233.101 285.3 233.101 285.5C233.201 285.7 233.251 285.85 233.251 285.95C233.251 285.85 233.251 285.7 233.251 285.5C233.351 285.3 233.451 285.15 233.551 285.05L248.551 233H271.651L245.851 311ZM289.742 343.25V233H311.642V245C312.542 243 313.692 241.15 315.092 239.45C316.592 237.75 318.242 236.3 320.042 235.1C321.942 233.9 323.992 233.05 326.192 232.55C328.392 232.05 330.592 231.8 332.792 231.8C335.392 231.8 337.942 232.15 340.442 232.85C343.042 233.55 345.342 234.75 347.342 236.45C349.342 238.05 351.042 239.95 352.442 242.15C353.842 244.35 354.942 246.7 355.742 249.2C356.542 251.7 357.092 254.25 357.392 256.85C357.692 259.35 357.842 261.9 357.842 264.5V279.5C357.842 282.1 357.692 284.7 357.392 287.3C357.092 289.8 356.542 292.3 355.742 294.8C354.942 297.3 353.842 299.65 352.442 301.85C351.042 304.05 349.342 306 347.342 307.7C345.342 309.3 343.042 310.45 340.442 311.15C337.942 311.85 335.392 312.2 332.792 312.2C330.592 312.2 328.392 311.95 326.192 311.45C323.992 310.95 321.942 310.1 320.042 308.9C318.242 307.7 316.592 306.25 315.092 304.55C313.692 302.85 312.542 301 311.642 299V343.25H289.742ZM323.792 294.2C325.592 294.2 327.342 293.85 329.042 293.15C330.742 292.35 332.142 291.25 333.242 289.85C334.342 288.35 335.042 286.7 335.342 284.9C335.742 283.1 335.942 281.3 335.942 279.5V264.5C335.942 262.7 335.742 260.9 335.342 259.1C335.042 257.3 334.342 255.7 333.242 254.3C332.142 252.8 330.742 251.7 329.042 251C327.342 250.2 325.592 249.8 323.792 249.8C321.992 249.8 320.242 250.2 318.542 251C316.842 251.7 315.442 252.8 314.342 254.3C313.242 255.7 312.492 257.3 312.092 259.1C311.792 260.9 311.642 262.7 311.642 264.5V279.5C311.642 281.3 311.792 283.1 312.092 284.9C312.492 286.7 313.242 288.35 314.342 289.85C315.442 291.25 316.842 292.35 318.542 293.15C320.242 293.85 321.992 294.2 323.792 294.2ZM379.684 311V233H401.584V244.85C402.484 242.95 403.634 241.15 405.034 239.45C406.434 237.75 408.034 236.3 409.834 235.1C411.634 233.9 413.584 233.05 415.684 232.55C417.884 232.05 420.034 231.8 422.134 231.8C424.734 231.8 427.284 232.2 429.784 233C432.284 233.7 434.534 234.9 436.534 236.6C438.534 238.2 440.184 240.1 441.484 242.3C442.784 244.5 443.834 246.85 444.634 249.35C445.434 251.75 445.934 254.25 446.134 256.85C446.434 259.35 446.584 261.9 446.584 264.5V311H424.684V264.5C424.684 262.7 424.484 260.95 424.084 259.25C423.784 257.45 423.134 255.85 422.134 254.45C421.234 252.95 419.934 251.8 418.234 251C416.634 250.2 414.934 249.8 413.134 249.8C411.334 249.8 409.584 250.2 407.884 251C406.284 251.8 404.984 252.95 403.984 254.45C403.084 255.85 402.434 257.45 402.034 259.25C401.734 260.95 401.584 262.7 401.584 264.5V311H379.684Z" fill="white"/>
</svg>
