<svg width="512" height="512" viewBox="0 0 512 512" fill="none" xmlns="http://www.w3.org/2000/svg">
<rect width="512" height="512" rx="69" fill="#131883"/>
<path d="M93.8086 267V247.2C98.4086 247 102.209 246.4 105.209 245.4C108.409 244.4 110.809 242.1 112.409 238.5C114.209 234.9 115.109 229.1 115.109 221.1V106.2C115.109 100.8 115.209 95.6 115.409 90.6C115.809 85.6 116.109 81.8 116.309 79.2C113.109 79.4 109.109 79.6 104.309 79.8C99.5086 79.8 96.0086 79.9 93.8086 80.1V57C108.009 56.8 122.209 56.7 136.409 56.7C150.609 56.7 164.809 56.6 179.009 56.4C196.609 56.2 211.909 58.2 224.909 62.4C237.909 66.6 247.909 73.4 254.909 82.8C261.909 92.2 265.209 104.9 264.809 120.9C264.609 129.3 262.509 137.3 258.509 144.9C254.709 152.5 248.909 159.2 241.109 165C233.509 170.8 223.809 175.4 212.009 178.8C215.809 180.4 219.509 183 223.109 186.6C226.909 190.2 230.109 194 232.709 198L246.809 219C251.209 225.8 255.109 231.2 258.509 235.2C261.909 239.2 265.309 242.2 268.709 244.2C272.109 246 276.009 247 280.409 247.2V267H230.909C227.309 264.4 223.709 260.7 220.109 255.9C216.709 250.9 213.009 245.2 209.009 238.8L186.809 202.8C184.209 198.8 181.909 195.4 179.909 192.6C178.109 189.8 176.209 187.4 174.209 185.4C171.009 185.4 168.309 185.4 166.109 185.4C163.909 185.4 161.409 185.4 158.609 185.4V217.5C158.609 223.1 158.509 228.4 158.309 233.4C158.109 238.4 157.809 242.2 157.409 244.8C159.609 244.6 162.409 244.5 165.809 244.5C169.209 244.3 172.509 244.2 175.709 244.2C179.109 244 181.509 243.9 182.909 243.9V267H93.8086ZM173.009 163.8C184.209 163.8 193.209 162.2 200.009 159C206.809 155.6 211.709 150.6 214.709 144C217.909 137.2 219.509 128.7 219.509 118.5C219.509 108.9 218.009 101.4 215.009 96C212.009 90.4 208.209 86.3 203.609 83.7C199.209 80.9 194.709 79.2 190.109 78.6C185.509 77.8 181.709 77.4 178.709 77.4C174.509 77.4 170.909 77.9 167.909 78.9C164.909 79.9 162.609 82.1 161.009 85.5C159.409 88.9 158.609 94.1 158.609 101.1V162.6C160.809 162.8 163.109 163.1 165.509 163.5C167.909 163.7 170.409 163.8 173.009 163.8ZM144.685 320.95C144.685 318.91 144.685 316.587 144.685 313.98C144.798 311.26 144.968 308.653 145.195 306.16C143.381 306.273 141.228 306.387 138.735 306.5C136.355 306.5 134.541 306.557 133.295 306.67V293.75C138.621 293.75 143.041 293.467 146.555 292.9C150.181 292.333 153.015 291.653 155.055 290.86C157.208 290.067 158.681 289.33 159.475 288.65H168.655V338.46C172.508 335.06 176.418 332.68 180.385 331.32C184.351 329.96 188.091 329.28 191.605 329.28C198.405 329.28 204.355 331.037 209.455 334.55C214.668 338.063 218.691 343.05 221.525 349.51C224.471 355.97 225.945 363.563 225.945 372.29C225.945 381.357 224.245 389.517 220.845 396.77C217.558 403.91 212.855 409.52 206.735 413.6C200.615 417.68 193.248 419.72 184.635 419.72C181.575 419.72 177.665 419.04 172.905 417.68C168.258 416.433 163.951 413.713 159.985 409.52L154.885 417H144.685V320.95ZM168.655 391.5C168.655 395.353 169.278 398.413 170.525 400.68C171.771 402.947 173.358 404.59 175.285 405.61C177.211 406.63 179.138 407.197 181.065 407.31C186.165 407.423 190.131 405.95 192.965 402.89C195.911 399.83 197.951 395.807 199.085 390.82C200.331 385.72 200.955 380.393 200.955 374.84C200.955 369.627 200.331 364.697 199.085 360.05C197.838 355.403 195.855 351.663 193.135 348.83C190.415 345.883 186.845 344.467 182.425 344.58C179.591 344.693 176.985 345.43 174.605 346.79C172.225 348.037 170.241 349.737 168.655 351.89V391.5ZM278.686 419.72C270.412 419.72 263.102 417.907 256.756 414.28C250.409 410.54 245.479 405.327 241.966 398.64C238.452 391.84 236.696 383.85 236.696 374.67C236.696 366.737 238.452 359.313 241.966 352.4C245.479 345.487 250.409 339.933 256.756 335.74C263.216 331.433 270.696 329.28 279.196 329.28C283.956 329.28 288.602 329.96 293.136 331.32C297.669 332.567 301.749 334.777 305.376 337.95C309.116 341.123 312.062 345.43 314.216 350.87C316.482 356.31 317.559 363.11 317.446 371.27L261.686 372.29C261.686 378.41 262.422 383.907 263.896 388.78C265.482 393.653 268.032 397.507 271.546 400.34C275.059 403.173 279.762 404.59 285.656 404.59C287.922 404.59 290.472 404.193 293.306 403.4C296.252 402.607 299.199 401.303 302.146 399.49C305.206 397.563 308.039 395.013 310.646 391.84L318.296 398.98C314.216 404.76 309.852 409.18 305.206 412.24C300.559 415.187 295.912 417.17 291.266 418.19C286.732 419.21 282.539 419.72 278.686 419.72ZM262.706 360.39H293.986C293.872 355.63 293.192 351.89 291.946 349.17C290.812 346.337 289.226 344.297 287.186 343.05C285.146 341.803 282.766 341.18 280.046 341.18C275.059 341.18 271.149 342.993 268.316 346.62C265.482 350.133 263.612 354.723 262.706 360.39ZM363.53 419.72C360.13 419.72 356.844 419.323 353.67 418.53C350.497 417.737 347.664 416.263 345.17 414.11C342.677 411.843 340.694 408.557 339.22 404.25C337.747 399.943 337.01 394.22 337.01 387.08L337.35 346.11H325.79V332C329.304 331.887 332.704 330.697 335.99 328.43C339.277 326.163 342.054 323.217 344.32 319.59C346.7 315.963 348.287 312.167 349.08 308.2H361.66L361.49 332H383.08V345.09L361.49 345.6L361.32 387.42C361.32 390.027 361.547 392.633 362 395.24C362.567 397.733 363.587 399.83 365.06 401.53C366.534 403.117 368.687 403.91 371.52 403.91C373.107 403.91 375.26 403.343 377.98 402.21C380.814 401.077 383.817 398.243 386.99 393.71L395.15 401.36C392.09 405.893 388.917 409.407 385.63 411.9C382.344 414.393 379.17 416.207 376.11 417.34C373.164 418.473 370.557 419.153 368.29 419.38C366.024 419.607 364.437 419.72 363.53 419.72ZM447.355 417C447.128 415.413 446.958 414.11 446.845 413.09C446.845 411.957 446.788 410.653 446.675 409.18C442.822 413.033 438.742 415.753 434.435 417.34C430.128 418.927 425.765 419.72 421.345 419.72C414.092 419.72 408.425 417.567 404.345 413.26C400.265 408.953 398.225 403.57 398.225 397.11C398.225 391.67 399.585 387.023 402.305 383.17C405.138 379.317 408.822 376.2 413.355 373.82C418.002 371.327 423.102 369.457 428.655 368.21C434.322 366.85 439.988 366.057 445.655 365.83V356.99C445.655 354.043 445.258 351.38 444.465 349C443.785 346.62 442.538 344.75 440.725 343.39C439.025 342.03 436.588 341.407 433.415 341.52C431.262 341.633 429.165 342.087 427.125 342.88C425.085 343.673 423.328 344.807 421.855 346.28C422.762 347.3 423.328 348.433 423.555 349.68C423.782 350.813 423.895 351.833 423.895 352.74C423.895 355.007 422.988 357.387 421.175 359.88C419.362 362.26 416.472 363.393 412.505 363.28C409.105 363.167 406.498 361.977 404.685 359.71C402.872 357.443 401.965 354.78 401.965 351.72C401.965 347.187 403.552 343.277 406.725 339.99C410.012 336.59 414.375 333.983 419.815 332.17C425.255 330.243 431.262 329.28 437.835 329.28C447.808 329.28 455.515 331.887 460.955 337.1C466.508 342.2 469.285 350.417 469.285 361.75C469.285 365.603 469.285 368.89 469.285 371.61C469.285 374.33 469.228 377.05 469.115 379.77C469.115 382.49 469.115 385.777 469.115 389.63C469.115 391.217 469.058 393.483 468.945 396.43C468.832 399.263 468.662 401.983 468.435 404.59C470.362 404.363 472.402 404.25 474.555 404.25C476.708 404.137 478.352 404.08 479.485 404.08V417H447.355ZM445.485 377.9C442.312 378.24 439.308 378.807 436.475 379.6C433.642 380.393 431.148 381.47 428.995 382.83C426.955 384.19 425.312 385.833 424.065 387.76C422.932 389.687 422.365 391.84 422.365 394.22C422.478 397.393 423.498 399.66 425.425 401.02C427.352 402.38 429.562 403.06 432.055 403.06C434.662 403.06 437.098 402.493 439.365 401.36C441.632 400.227 443.672 398.753 445.485 396.94C445.485 395.807 445.485 394.73 445.485 393.71C445.485 392.577 445.485 391.443 445.485 390.31C445.485 388.27 445.485 386.23 445.485 384.19C445.485 382.037 445.485 379.94 445.485 377.9Z" fill="white"/>
</svg>
