<svg width="512" height="512" viewBox="0 0 512 512" fill="none" xmlns="http://www.w3.org/2000/svg">
<rect width="512" height="512" rx="69" fill="#131883"/>
<path d="M168.168 366V346.2C172.768 346 176.568 345.4 179.568 344.4C182.768 343.4 185.168 341.1 186.768 337.5C188.568 333.9 189.468 328.1 189.468 320.1V205.2C189.468 199.8 189.568 194.6 189.768 189.6C190.168 184.6 190.468 180.8 190.668 178.2C187.468 178.4 183.468 178.6 178.668 178.8C173.868 178.8 170.368 178.9 168.168 179.1V156C182.368 155.8 196.568 155.7 210.768 155.7C224.968 155.7 239.168 155.6 253.368 155.4C270.968 155.2 286.268 157.2 299.268 161.4C312.268 165.6 322.268 172.4 329.268 181.8C336.268 191.2 339.568 203.9 339.168 219.9C338.968 228.3 336.868 236.3 332.868 243.9C329.068 251.5 323.268 258.2 315.468 264C307.868 269.8 298.168 274.4 286.368 277.8C290.168 279.4 293.868 282 297.468 285.6C301.268 289.2 304.468 293 307.068 297L321.168 318C325.568 324.8 329.468 330.2 332.868 334.2C336.268 338.2 339.668 341.2 343.068 343.2C346.468 345 350.368 346 354.768 346.2V366H305.268C301.668 363.4 298.068 359.7 294.468 354.9C291.068 349.9 287.368 344.2 283.368 337.8L261.168 301.8C258.568 297.8 256.268 294.4 254.268 291.6C252.468 288.8 250.568 286.4 248.568 284.4C245.368 284.4 242.668 284.4 240.468 284.4C238.268 284.4 235.768 284.4 232.968 284.4V316.5C232.968 322.1 232.868 327.4 232.668 332.4C232.468 337.4 232.168 341.2 231.768 343.8C233.968 343.6 236.768 343.5 240.168 343.5C243.568 343.3 246.868 343.2 250.068 343.2C253.468 343 255.868 342.9 257.268 342.9V366H168.168ZM247.368 262.8C258.568 262.8 267.568 261.2 274.368 258C281.168 254.6 286.068 249.6 289.068 243C292.268 236.2 293.868 227.7 293.868 217.5C293.868 207.9 292.368 200.4 289.368 195C286.368 189.4 282.568 185.3 277.968 182.7C273.568 179.9 269.068 178.2 264.468 177.6C259.868 176.8 256.068 176.4 253.068 176.4C248.868 176.4 245.268 176.9 242.268 177.9C239.268 178.9 236.968 181.1 235.368 184.5C233.768 187.9 232.968 193.1 232.968 200.1V261.6C235.168 261.8 237.468 262.1 239.868 262.5C242.268 262.7 244.768 262.8 247.368 262.8Z" fill="white"/>
</svg>
