<svg width="512" height="512" viewBox="0 0 512 512" fill="none" xmlns="http://www.w3.org/2000/svg">
<rect width="512" height="512" rx="69" fill="#181818"/>
<path d="M184.478 438V207.6C184.478 191.4 187.378 178.1 193.178 167.7C199.178 157.1 207.578 149.3 218.378 144.3C229.378 139.1 242.278 136.5 257.078 136.5C271.478 136.5 283.778 138.7 293.978 143.1C304.178 147.3 311.978 153.7 317.378 162.3C322.978 170.7 325.778 181.3 325.778 194.1C325.778 203.7 324.078 212 320.678 219C317.478 226 312.878 231.6 306.878 235.8C301.078 240 294.078 242.9 285.878 244.5V245.4C296.278 246.8 305.278 249.7 312.878 254.1C320.678 258.5 326.678 264.7 330.878 272.7C335.278 280.5 337.478 290.5 337.478 302.7C337.478 316.7 334.278 328.7 327.878 338.7C321.678 348.5 313.278 356 302.678 361.2C292.278 366.4 280.678 369 267.878 369C261.478 369 256.178 368.6 251.978 367.8C247.778 367.2 243.878 366.2 240.278 364.8C236.878 363.4 233.178 361.7 229.178 359.7V438H184.478ZM259.478 333.3C269.478 333.3 277.278 330.3 282.878 324.3C288.478 318.1 291.278 309.6 291.278 298.8C291.278 290.6 289.578 284 286.178 279C282.978 273.8 278.878 270.1 273.878 267.9C268.878 265.5 263.678 264.3 258.278 264.3H244.778V230.7H255.578C260.978 230.7 265.578 229.4 269.378 226.8C273.178 224 276.078 220.3 278.078 215.7C280.078 210.9 281.078 205.5 281.078 199.5C281.078 190.1 278.678 183.1 273.878 178.5C269.078 173.7 263.378 171.3 256.778 171.3C251.178 171.3 246.278 172.5 242.078 174.9C237.878 177.3 234.678 181.2 232.478 186.6C230.278 191.8 229.178 198.9 229.178 207.9V323.1C234.178 326.3 239.078 328.8 243.878 330.6C248.678 332.4 253.878 333.3 259.478 333.3Z" fill="white"/>
</svg>
