<svg width="2133" height="2133" viewBox="0 0 2133 2133" fill="none" xmlns="http://www.w3.org/2000/svg">
<g clip-path="url(#clip0_5_17)">
<path fill-rule="evenodd" clip-rule="evenodd" d="M-0.5 -0.5C709.833 -0.5 1420.17 -0.5 2130.5 -0.5C2130.5 709.833 2130.5 1420.17 2130.5 2130.5C1420.17 2130.5 709.833 2130.5 -0.5 2130.5C-0.5 1420.17 -0.5 709.833 -0.5 -0.5Z" fill="#DFC911"/>
<path fill-rule="evenodd" clip-rule="evenodd" d="M1076.5 899.5C1044.05 974.508 1012.39 1049.84 981.5 1125.5C883.126 896.735 787.459 666.735 694.5 435.5C706.405 433.545 718.405 432.379 730.5 432C768.167 430 805.833 430 843.5 432C855.794 432.406 867.961 433.573 880 435.5C939.022 586.21 1001.35 735.544 1067 883.5C1069.96 889.102 1073.12 894.435 1076.5 899.5Z" fill="#242424"/>
<path fill-rule="evenodd" clip-rule="evenodd" d="M1155.5 1106.5C1153.05 1111.68 1150.88 1117.02 1149 1122.5C1147.11 1212.82 1146.27 1303.16 1146.5 1393.5C1146.5 1486.17 1146.5 1578.83 1146.5 1671.5C1089.83 1671.5 1033.17 1671.5 976.5 1671.5C976.5 1605.17 976.5 1538.83 976.5 1472.5C976.5 1414.17 976.5 1355.83 976.5 1297.5C979.711 1240.21 981.044 1182.88 980.5 1125.5C1011.39 1049.84 1043.05 974.508 1075.5 899.5C1136.91 746.002 1198.91 592.669 1261.5 439.5C1316.49 432.834 1371.49 432.834 1426.5 439.5C1334.22 661.061 1243.88 883.394 1155.5 1106.5Z" fill="#292929"/>
<path fill-rule="evenodd" clip-rule="evenodd" d="M1154.5 1106.5C1159.37 1113.88 1165.21 1120.55 1172 1126.5C1306.33 1097.96 1438.5 1105.8 1568.5 1150C1693.03 1208.27 1719.53 1296.44 1648 1414.5C1627.28 1438.73 1603.45 1459.07 1576.5 1475.5C1560.98 1471.72 1545.65 1467.22 1530.5 1462C1487.07 1447.58 1443.74 1433.08 1400.5 1418.5C1439.9 1389.74 1463.57 1351.08 1471.5 1302.5C1468.34 1274.99 1456.01 1252.83 1434.5 1236C1426.7 1231.18 1418.37 1227.51 1409.5 1225C1384.82 1219.12 1359.82 1216.46 1334.5 1217C1279.02 1224.18 1238.85 1252.68 1214 1302.5C1193.44 1334.29 1170.94 1364.62 1146.5 1393.5C1146.17 1393.5 1145.83 1393.5 1145.5 1393.5C1145.27 1303.16 1146.11 1212.82 1148 1122.5C1149.88 1117.02 1152.05 1111.68 1154.5 1106.5Z" fill="#242424"/>
<path fill-rule="evenodd" clip-rule="evenodd" d="M760.5 1201.5C705.997 1180.28 650.997 1160.11 595.5 1141C593.24 1140.45 591.574 1139.28 590.5 1137.5C591.5 1133.68 594 1132.01 598 1132.5C668.27 1138.05 737.77 1148.55 806.5 1164C791.873 1177.47 776.54 1189.97 760.5 1201.5Z" fill="#242424"/>
<path fill-rule="evenodd" clip-rule="evenodd" d="M589.5 1137.5C590.574 1139.28 592.24 1140.45 594.5 1141C649.997 1160.11 704.997 1180.28 759.5 1201.5C759.833 1204.5 758.5 1205.83 755.5 1205.5C698.176 1185.67 641.176 1165 584.5 1143.5C585.272 1140.76 586.939 1138.76 589.5 1137.5Z" fill="#E0CE44"/>
<path fill-rule="evenodd" clip-rule="evenodd" d="M585.5 1143.5C642.176 1165 699.176 1185.67 756.5 1205.5C744.684 1221.12 733.851 1237.45 724 1254.5C707.489 1301.3 721.322 1335.8 765.5 1358C817.233 1376.82 868.567 1375.82 919.5 1355C923.5 1353 927.5 1351 931.5 1349C948.182 1332.83 963.516 1315.66 977.5 1297.5C977.5 1355.83 977.5 1414.17 977.5 1472.5C857.512 1490.09 739.846 1480.26 624.5 1443C566.977 1422.81 527.144 1384.31 505 1327.5C491.68 1248.21 518.513 1186.88 585.5 1143.5Z" fill="#242424"/>
<path fill-rule="evenodd" clip-rule="evenodd" d="M1146.5 1393.5C1146.83 1393.5 1147.17 1393.5 1147.5 1393.5C1147.5 1486.5 1147.5 1579.5 1147.5 1672.5C1090.33 1672.83 1033.33 1672.5 976.5 1671.5C1033.17 1671.5 1089.83 1671.5 1146.5 1671.5C1146.5 1578.83 1146.5 1486.17 1146.5 1393.5Z" fill="#F5F0C2"/>
<path fill-rule="evenodd" clip-rule="evenodd" d="M1401.5 1418.5C1444.74 1433.08 1488.07 1447.58 1531.5 1462C1546.65 1467.22 1561.98 1471.72 1577.5 1475.5C1575.39 1479.52 1572.06 1481.52 1567.5 1481.5C1531.19 1469.67 1494.85 1457.51 1458.5 1445C1438.26 1437.76 1418.26 1430.26 1398.5 1422.5C1400.26 1421.74 1401.26 1420.4 1401.5 1418.5Z" fill="#E0CF45"/>
<path fill-rule="evenodd" clip-rule="evenodd" d="M1397.5 1422.5C1417.26 1430.26 1437.26 1437.76 1457.5 1445C1493.85 1457.51 1530.19 1469.67 1566.5 1481.5C1558.7 1488.07 1549.7 1490.24 1539.5 1488C1476.19 1477.15 1413.19 1464.81 1350.5 1451C1365.84 1442.67 1380.51 1433.33 1394.5 1423C1395.45 1422.52 1396.45 1422.35 1397.5 1422.5Z" fill="#242424"/>
</g>
<defs>
<clipPath id="clip0_5_17">
<rect width="2133" height="2133" fill="white"/>
</clipPath>
</defs>
</svg>
