<svg width="512" height="512" viewBox="0 0 512 512" fill="none" xmlns="http://www.w3.org/2000/svg">
<rect width="512" height="512" rx="69" fill="#131883"/>
<path d="M292.134 476.36V272.884C292.134 258.567 289.586 247.889 284.49 240.852C279.637 233.572 271.871 229.932 261.194 229.932C251.002 229.932 242.873 232.48 236.806 237.576C230.982 242.672 226.857 250.073 224.43 259.78C222.003 269.487 220.79 281.377 220.79 295.452V389H166.554V190.256H208.05L215.33 215.736H218.242C222.61 208.941 227.706 203.481 233.53 199.356C239.597 194.988 246.27 191.833 253.55 189.892C260.83 187.708 268.595 186.616 276.846 186.616C290.678 186.616 302.811 189.164 313.246 194.26C323.681 199.356 331.81 207.243 337.634 217.92C343.458 228.597 346.37 242.429 346.37 259.416V476.36H292.134Z" fill="white"/>
</svg>
