<svg width="512" height="512" viewBox="0 0 512 512" fill="none" xmlns="http://www.w3.org/2000/svg">
<rect width="512" height="512" rx="69" fill="#181818"/>
<path d="M91.5172 331V227H120.717V242.8C121.917 240.267 123.451 237.867 125.317 235.6C127.184 233.333 129.317 231.4 131.717 229.8C134.117 228.2 136.717 227.067 139.517 226.4C142.451 225.733 145.317 225.4 148.117 225.4C151.584 225.4 154.984 225.933 158.317 227C161.651 227.933 164.651 229.533 167.317 231.8C169.984 233.933 172.184 236.467 173.917 239.4C175.651 242.333 177.051 245.467 178.117 248.8C179.184 252 179.851 255.333 180.117 258.8C180.517 262.133 180.717 265.533 180.717 269V331H151.517V269C151.517 266.6 151.251 264.267 150.717 262C150.317 259.6 149.451 257.467 148.117 255.6C146.917 253.6 145.184 252.067 142.917 251C140.784 249.933 138.517 249.4 136.117 249.4C133.717 249.4 131.384 249.933 129.117 251C126.984 252.067 125.251 253.6 123.917 255.6C122.717 257.467 121.851 259.6 121.317 262C120.917 264.267 120.717 266.6 120.717 269V331H91.5172ZM255.839 332.6C252.506 332.6 249.106 332.4 245.639 332C242.306 331.733 239.039 331.2 235.839 330.4C232.639 329.467 229.506 328.2 226.439 326.6C223.506 325 220.839 323 218.439 320.6C216.172 318.2 214.372 315.4 213.039 312.2C211.706 309 211.039 305.733 211.039 302.4V301H238.039V301.2C238.039 303.067 238.772 304.667 240.239 306C241.706 307.333 243.306 308.333 245.039 309C246.772 309.533 248.506 309.933 250.239 310.2C252.106 310.333 253.972 310.4 255.839 310.4C257.572 310.4 259.306 310.333 261.039 310.2C262.906 310.067 264.706 309.733 266.439 309.2C268.172 308.667 269.772 307.867 271.239 306.8C272.839 305.6 273.639 304.067 273.639 302.2C273.639 300.467 273.039 298.933 271.839 297.6C270.639 296.267 269.239 295.2 267.639 294.4C266.172 293.6 264.572 293 262.839 292.6C261.239 292.2 259.572 291.8 257.839 291.4C256.106 291 254.372 290.6 252.639 290.2C251.039 289.8 249.372 289.333 247.639 288.8C246.039 288.267 244.439 287.733 242.839 287.2C241.239 286.667 239.639 286.067 238.039 285.4C236.439 284.733 234.839 284 233.239 283.2C231.772 282.4 230.306 281.533 228.839 280.6C227.372 279.667 225.972 278.667 224.639 277.6C223.306 276.533 222.039 275.4 220.839 274.2C219.639 272.867 218.506 271.467 217.439 270C216.506 268.533 215.706 267 215.039 265.4C214.372 263.8 213.839 262.2 213.439 260.6C213.172 258.867 213.039 257.133 213.039 255.4C213.039 252.067 213.639 248.867 214.839 245.8C216.039 242.733 217.772 240 220.039 237.6C222.306 235.2 224.839 233.2 227.639 231.6C230.572 230 233.572 228.733 236.639 227.8C239.839 226.867 243.039 226.267 246.239 226C249.572 225.6 252.906 225.4 256.239 225.4C259.572 225.4 262.839 225.6 266.039 226C269.372 226.267 272.572 226.867 275.639 227.8C278.839 228.733 281.906 230 284.839 231.6C287.772 233.2 290.306 235.2 292.439 237.6C294.706 240 296.439 242.8 297.639 246C298.839 249.067 299.439 252.267 299.439 255.6V257H272.439V256.6C272.439 254.867 271.839 253.4 270.639 252.2C269.439 250.867 268.039 249.867 266.439 249.2C264.839 248.533 263.172 248.133 261.439 248C259.706 247.733 257.972 247.6 256.239 247.6C254.506 247.6 252.772 247.667 251.039 247.8C249.439 247.933 247.839 248.267 246.239 248.8C244.772 249.333 243.372 250.2 242.039 251.4C240.706 252.6 240.039 254 240.039 255.6C240.039 257.333 240.639 258.933 241.839 260.4C243.039 261.733 244.372 262.8 245.839 263.6C247.439 264.267 249.039 264.867 250.639 265.4C252.372 265.8 254.039 266.2 255.639 266.6C257.372 267 259.039 267.4 260.639 267.8C262.372 268.2 264.039 268.667 265.639 269.2C267.372 269.6 269.039 270.133 270.639 270.8C272.372 271.333 274.039 271.933 275.639 272.6C277.239 273.267 278.772 274 280.239 274.8C281.839 275.6 283.372 276.467 284.839 277.4C286.306 278.333 287.706 279.333 289.039 280.4C290.372 281.467 291.639 282.667 292.839 284C294.039 285.2 295.106 286.533 296.039 288C296.972 289.333 297.772 290.8 298.439 292.4C299.239 294 299.772 295.667 300.039 297.4C300.439 299.133 300.639 300.867 300.639 302.6C300.639 305.933 299.972 309.2 298.639 312.4C297.306 315.467 295.439 318.2 293.039 320.6C290.772 323 288.106 325 285.039 326.6C282.106 328.2 278.972 329.467 275.639 330.4C272.439 331.2 269.172 331.733 265.839 332C262.506 332.4 259.172 332.6 255.839 332.6ZM391.361 374V315C390.161 317.667 388.561 320.133 386.561 322.4C384.694 324.667 382.494 326.6 379.961 328.2C377.561 329.8 374.894 330.933 371.961 331.6C369.028 332.267 366.094 332.6 363.161 332.6C359.694 332.6 356.228 332.133 352.761 331.2C349.428 330.267 346.428 328.733 343.761 326.6C341.094 324.333 338.828 321.733 336.961 318.8C335.094 315.867 333.628 312.733 332.561 309.4C331.494 306.067 330.761 302.733 330.361 299.4C329.961 295.933 329.761 292.467 329.761 289V269C329.761 265.533 329.961 262.133 330.361 258.8C330.761 255.333 331.494 251.933 332.561 248.6C333.628 245.267 335.094 242.133 336.961 239.2C338.828 236.267 341.094 233.733 343.761 231.6C346.428 229.333 349.428 227.733 352.761 226.8C356.228 225.867 359.694 225.4 363.161 225.4C366.094 225.4 369.028 225.733 371.961 226.4C374.894 227.067 377.561 228.2 379.961 229.8C382.494 231.4 384.694 233.333 386.561 235.6C388.561 237.867 390.161 240.333 391.361 243V227H420.561V374H391.361ZM375.161 308.6C377.561 308.6 379.894 308.133 382.161 307.2C384.428 306.133 386.294 304.667 387.761 302.8C389.228 300.8 390.161 298.6 390.561 296.2C391.094 293.8 391.361 291.4 391.361 289V269C391.361 266.6 391.094 264.2 390.561 261.8C390.161 259.4 389.228 257.267 387.761 255.4C386.294 253.4 384.428 251.933 382.161 251C379.894 249.933 377.561 249.4 375.161 249.4C372.761 249.4 370.428 249.933 368.161 251C365.894 251.933 364.028 253.4 362.561 255.4C361.094 257.267 360.094 259.4 359.561 261.8C359.161 264.2 358.961 266.6 358.961 269V289C358.961 291.4 359.161 293.8 359.561 296.2C360.094 298.6 361.094 300.8 362.561 302.8C364.028 304.667 365.894 306.133 368.161 307.2C370.428 308.133 372.761 308.6 375.161 308.6Z" fill="white"/>
</svg>
