<svg width="512" height="512" viewBox="0 0 512 512" fill="none" xmlns="http://www.w3.org/2000/svg">
<rect width="512" height="512" rx="69" fill="#181818"/>
<path d="M166.878 400V192H225.278V223.6C227.678 218.533 230.745 213.733 234.478 209.2C238.211 204.667 242.478 200.8 247.278 197.6C252.078 194.4 257.278 192.133 262.878 190.8C268.745 189.467 274.478 188.8 280.078 188.8C287.011 188.8 293.811 189.867 300.478 192C307.145 193.867 313.145 197.067 318.478 201.6C323.811 205.867 328.211 210.933 331.678 216.8C335.145 222.667 337.945 228.933 340.078 235.6C342.211 242 343.545 248.667 344.078 255.6C344.878 262.267 345.278 269.067 345.278 276V400H286.878V276C286.878 271.2 286.345 266.533 285.278 262C284.478 257.2 282.745 252.933 280.078 249.2C277.678 245.2 274.211 242.133 269.678 240C265.411 237.867 260.878 236.8 256.078 236.8C251.278 236.8 246.611 237.867 242.078 240C237.811 242.133 234.345 245.2 231.678 249.2C229.278 252.933 227.545 257.2 226.478 262C225.678 266.533 225.278 271.2 225.278 276V400H166.878Z" fill="white"/>
</svg>
