<svg width="1920" height="768" viewBox="0 0 1920 768" fill="none" xmlns="http://www.w3.org/2000/svg">
<rect width="1920" height="768" fill="#181818"/>
<path d="M650.791 362V229.7H686.971C690.811 229.7 694.651 230.06 698.491 230.78C702.451 231.38 706.171 232.52 709.651 234.2C713.131 235.76 716.311 237.92 719.191 240.68C722.071 243.32 724.411 246.38 726.211 249.86C728.011 253.34 729.271 257 729.991 260.84C730.711 264.68 731.071 268.52 731.071 272.36V319.34C731.071 323.18 730.711 327.02 729.991 330.86C729.271 334.7 728.011 338.36 726.211 341.84C724.411 345.32 722.071 348.44 719.191 351.2C716.311 353.84 713.131 356 709.651 357.68C706.171 359.24 702.451 360.38 698.491 361.1C694.651 361.7 690.811 362 686.971 362H650.791ZM672.211 343.82H686.971C689.131 343.82 691.231 343.64 693.271 343.28C695.431 342.8 697.411 342.08 699.211 341.12C701.011 340.04 702.631 338.72 704.071 337.16C705.511 335.48 706.651 333.68 707.491 331.76C708.331 329.84 708.871 327.86 709.111 325.82C709.471 323.66 709.651 321.5 709.651 319.34V272.36C709.651 270.2 709.471 268.1 709.111 266.06C708.871 263.9 708.331 261.86 707.491 259.94C706.651 258.02 705.511 256.28 704.071 254.72C702.631 253.04 701.011 251.72 699.211 250.76C697.411 249.68 695.431 248.96 693.271 248.6C691.231 248.12 689.131 247.88 686.971 247.88H672.211V343.82ZM753.141 362V268.4H774.381V276.5C775.101 275.06 775.941 273.74 776.901 272.54C777.981 271.34 779.181 270.32 780.501 269.48C781.941 268.52 783.441 267.86 785.001 267.5C786.561 267.14 788.121 266.96 789.681 266.96C791.721 266.96 793.701 267.26 795.621 267.86C797.541 268.46 799.221 269.42 800.661 270.74C802.221 272.06 803.541 273.62 804.621 275.42C805.701 277.1 806.541 278.9 807.141 280.82C807.621 278.9 808.341 277.1 809.301 275.42C810.381 273.62 811.641 272.06 813.081 270.74C814.641 269.42 816.321 268.46 818.121 267.86C820.041 267.26 822.021 266.96 824.061 266.96C826.101 266.96 828.141 267.32 830.181 268.04C832.221 268.64 834.021 269.66 835.581 271.1C837.141 272.54 838.401 274.16 839.361 275.96C840.321 277.76 841.101 279.68 841.701 281.72C842.301 283.76 842.661 285.8 842.781 287.84C843.021 289.88 843.141 291.98 843.141 294.14V362H821.901V294.14C821.901 293.06 821.781 292.04 821.541 291.08C821.421 290 821.061 289.04 820.461 288.2C819.981 287.24 819.261 286.52 818.301 286.04C817.341 285.44 816.381 285.14 815.421 285.14C814.341 285.14 813.321 285.44 812.361 286.04C811.401 286.52 810.621 287.24 810.021 288.2C809.541 289.04 809.181 290 808.941 291.08C808.821 292.04 808.761 293.06 808.761 294.14V362H787.521V294.14C787.521 293.06 787.401 292.04 787.161 291.08C787.041 290 786.681 289.04 786.081 288.2C785.601 287.24 784.881 286.52 783.921 286.04C782.961 285.44 781.941 285.14 780.861 285.14C779.901 285.14 778.941 285.44 777.981 286.04C777.021 286.52 776.241 287.24 775.641 288.2C775.161 289.04 774.801 290 774.561 291.08C774.441 292.04 774.381 293.06 774.381 294.14V362H753.141ZM869.89 362V343.82H896.89V286.58H872.77V268.4H918.13V343.82H942.25V362H869.89ZM907.15 255.8C905.23 255.8 903.31 255.5 901.39 254.9C899.47 254.3 897.85 253.34 896.53 252.02C895.21 250.7 894.25 249.08 893.65 247.16C893.05 245.24 892.75 243.32 892.75 241.4C892.75 239.48 893.05 237.56 893.65 235.64C894.25 233.72 895.21 232.1 896.53 230.78C897.85 229.46 899.47 228.5 901.39 227.9C903.31 227.3 905.23 227 907.15 227C909.07 227 910.99 227.3 912.91 227.9C914.83 228.5 916.45 229.46 917.77 230.78C919.09 232.1 920.05 233.72 920.65 235.64C921.25 237.56 921.55 239.48 921.55 241.4C921.55 243.32 921.25 245.24 920.65 247.16C920.05 249.08 919.09 250.7 917.77 252.02C916.45 253.34 914.83 254.3 912.91 254.9C910.99 255.5 909.07 255.8 907.15 255.8ZM1026.78 363.44C1023.54 363.44 1020.3 363.02 1017.06 362.18C1013.94 361.34 1011.06 360.02 1008.42 358.22C1005.78 356.3 1003.5 353.96 1001.58 351.2C999.78 348.44 998.34 345.56 997.26 342.56C996.18 339.44 995.4 336.26 994.92 333.02C994.56 329.78 994.38 326.54 994.38 323.3V286.58H976.74V268.4H994.38V229.7H1015.8V268.4H1049.28V286.58H1015.8V323.3C1015.8 324.86 1015.8 326.42 1015.8 327.98C1015.92 329.42 1016.1 330.92 1016.34 332.48C1016.7 333.92 1017.06 335.36 1017.42 336.8C1017.9 338.24 1018.56 339.62 1019.4 340.94C1020.24 342.14 1021.32 343.16 1022.64 344C1023.96 344.84 1025.34 345.26 1026.78 345.26C1028.7 345.26 1030.44 344.72 1032 343.64C1033.68 342.44 1034.88 341 1035.6 339.32C1036.44 337.64 1037.04 335.84 1037.4 333.92C1037.76 332 1037.94 330.14 1037.94 328.34V327.98H1059.18V328.7C1059.18 331.7 1058.88 334.7 1058.28 337.7C1057.8 340.58 1056.9 343.4 1055.58 346.16C1054.38 348.8 1052.76 351.26 1050.72 353.54C1048.8 355.82 1046.52 357.74 1043.88 359.3C1041.36 360.86 1038.6 361.94 1035.6 362.54C1032.72 363.14 1029.78 363.44 1026.78 363.44ZM1094.21 362V268.4H1115.63V286.04C1116.59 283.4 1117.79 280.88 1119.23 278.48C1120.79 276.08 1122.65 273.98 1124.81 272.18C1126.97 270.38 1129.43 269.06 1132.19 268.22C1134.95 267.38 1137.71 266.96 1140.47 266.96C1143.11 266.96 1145.69 267.32 1148.21 268.04C1150.73 268.76 1152.95 269.96 1154.87 271.64C1156.91 273.32 1158.59 275.3 1159.91 277.58C1161.23 279.86 1162.25 282.26 1162.97 284.78C1163.69 287.3 1164.17 289.88 1164.41 292.52C1164.65 295.04 1164.77 297.62 1164.77 300.26H1143.35C1143.35 298.46 1143.23 296.72 1142.99 295.04C1142.75 293.24 1142.21 291.62 1141.37 290.18C1140.53 288.62 1139.33 287.42 1137.77 286.58C1136.33 285.62 1134.71 285.14 1132.91 285.14C1130.87 285.14 1128.89 285.56 1126.97 286.4C1125.05 287.12 1123.43 288.2 1122.11 289.64C1120.79 291.08 1119.65 292.76 1118.69 294.68C1117.85 296.48 1117.19 298.4 1116.71 300.44C1116.23 302.36 1115.93 304.34 1115.81 306.38C1115.69 308.42 1115.63 310.4 1115.63 312.32V362H1094.21ZM1204.66 400.7C1206.34 395.66 1208.02 390.62 1209.7 385.58C1211.5 380.54 1213.3 375.44 1215.1 370.28L1219.06 358.76L1187.56 268.4H1209.88L1230.22 333.92L1249.84 268.4H1272.16L1226.8 400.7H1204.66ZM380.879 542V448.4H402.299V463.88C403.379 461.36 404.819 459.02 406.619 456.86C408.419 454.58 410.459 452.72 412.739 451.28C415.139 449.72 417.719 448.64 420.479 448.04C423.359 447.32 426.179 446.96 428.939 446.96C432.059 446.96 435.179 447.38 438.299 448.22C441.419 449.06 444.179 450.44 446.579 452.36C449.099 454.28 451.199 456.56 452.879 459.2C454.679 461.84 456.059 464.66 457.019 467.66C458.099 470.66 458.819 473.72 459.179 476.84C459.539 479.96 459.719 483.08 459.719 486.2V542H438.299V486.2C438.299 483.56 437.999 480.98 437.399 478.46C436.799 475.82 435.719 473.48 434.159 471.44C432.599 469.28 430.559 467.72 428.039 466.76C425.519 465.68 422.939 465.14 420.299 465.14C417.659 465.14 415.079 465.68 412.559 466.76C410.039 467.72 407.999 469.28 406.439 471.44C404.879 473.48 403.799 475.82 403.199 478.46C402.599 480.98 402.299 483.56 402.299 486.2V542H380.879ZM528.229 543.44C524.629 543.44 521.029 543.14 517.429 542.54C513.949 541.94 510.589 540.92 507.349 539.48C504.109 537.92 501.109 535.94 498.349 533.54C495.709 531.02 493.549 528.2 491.869 525.08C490.189 521.84 488.989 518.48 488.269 515C487.669 511.4 487.369 507.8 487.369 504.2V486.2C487.369 482.6 487.669 479.06 488.269 475.58C488.989 471.98 490.189 468.62 491.869 465.5C493.549 462.26 495.709 459.44 498.349 457.04C501.109 454.52 504.109 452.54 507.349 451.1C510.589 449.54 513.949 448.46 517.429 447.86C521.029 447.26 524.629 446.96 528.229 446.96C531.829 446.96 535.369 447.26 538.849 447.86C542.449 448.46 545.869 449.54 549.109 451.1C552.349 452.54 555.289 454.52 557.929 457.04C560.689 459.44 562.909 462.26 564.589 465.5C566.269 468.62 567.409 471.98 568.009 475.58C568.729 479.06 569.089 482.6 569.089 486.2V504.2C569.089 507.8 568.729 511.4 568.009 515C567.409 518.48 566.269 521.84 564.589 525.08C562.909 528.2 560.689 531.02 557.929 533.54C555.289 535.94 552.349 537.92 549.109 539.48C545.869 540.92 542.449 541.94 538.849 542.54C535.369 543.14 531.829 543.44 528.229 543.44ZM528.229 525.26C530.989 525.26 533.689 524.84 536.329 524C538.969 523.04 541.129 521.54 542.809 519.5C544.609 517.34 545.869 514.94 546.589 512.3C547.309 509.66 547.669 506.96 547.669 504.2V486.2C547.669 483.44 547.309 480.74 546.589 478.1C545.869 475.46 544.609 473.12 542.809 471.08C541.129 468.92 538.969 467.42 536.329 466.58C533.689 465.62 530.989 465.14 528.229 465.14C525.469 465.14 522.769 465.62 520.129 466.58C517.489 467.42 515.269 468.92 513.469 471.08C511.789 473.12 510.589 475.46 509.869 478.1C509.149 480.74 508.789 483.44 508.789 486.2V504.2C508.789 506.96 509.149 509.66 509.869 512.3C510.589 514.94 511.789 517.34 513.469 519.5C515.269 521.54 517.489 523.04 520.129 524C522.769 524.84 525.469 525.26 528.229 525.26ZM648.938 543.44C645.698 543.44 642.458 543.02 639.218 542.18C636.098 541.34 633.218 540.02 630.578 538.22C627.938 536.3 625.658 533.96 623.738 531.2C621.938 528.44 620.498 525.56 619.418 522.56C618.338 519.44 617.558 516.26 617.078 513.02C616.718 509.78 616.538 506.54 616.538 503.3V466.58H598.898V448.4H616.538V409.7H637.958V448.4H671.438V466.58H637.958V503.3C637.958 504.86 637.958 506.42 637.958 507.98C638.078 509.42 638.258 510.92 638.498 512.48C638.858 513.92 639.218 515.36 639.578 516.8C640.058 518.24 640.718 519.62 641.558 520.94C642.398 522.14 643.478 523.16 644.798 524C646.118 524.84 647.498 525.26 648.938 525.26C650.858 525.26 652.598 524.72 654.158 523.64C655.838 522.44 657.038 521 657.758 519.32C658.598 517.64 659.198 515.84 659.558 513.92C659.918 512 660.098 510.14 660.098 508.34V507.98H681.338V508.7C681.338 511.7 681.038 514.7 680.438 517.7C679.958 520.58 679.058 523.4 677.738 526.16C676.538 528.8 674.918 531.26 672.878 533.54C670.958 535.82 668.678 537.74 666.038 539.3C663.518 540.86 660.758 541.94 657.758 542.54C654.878 543.14 651.938 543.44 648.938 543.44ZM851.838 543.44C848.838 543.44 845.838 543.26 842.838 542.9C839.958 542.66 837.078 542.18 834.198 541.46C831.438 540.62 828.678 539.54 825.918 538.22C823.278 536.9 820.938 535.22 818.898 533.18C816.858 531.02 815.238 528.56 814.038 525.8C812.838 522.92 812.238 520.04 812.238 517.16V516.08H833.658V516.26C833.658 517.46 834.018 518.6 834.738 519.68C835.458 520.76 836.358 521.66 837.438 522.38C838.518 522.98 839.598 523.46 840.678 523.82C841.878 524.18 843.078 524.48 844.278 524.72C845.598 524.96 846.858 525.14 848.058 525.26C849.378 525.26 850.638 525.26 851.838 525.26C853.038 525.26 854.238 525.26 855.438 525.26C856.758 525.14 858.018 525.02 859.218 524.9C860.418 524.66 861.618 524.36 862.818 524C864.018 523.64 865.158 523.16 866.238 522.56C867.318 521.84 868.218 521 868.938 520.04C869.658 518.96 870.018 517.76 870.018 516.44C870.018 514.88 869.478 513.44 868.398 512.12C867.318 510.8 866.058 509.78 864.618 509.06C863.178 508.22 861.678 507.62 860.118 507.26C858.558 506.78 856.938 506.36 855.258 506H855.078C851.958 505.28 848.898 504.5 845.898 503.66C842.898 502.82 839.898 501.8 836.898 500.6C834.018 499.4 831.198 498.02 828.438 496.46C825.798 494.78 823.398 492.86 821.238 490.7C819.078 488.42 817.338 485.84 816.018 482.96C814.698 479.96 814.038 476.84 814.038 473.6C814.038 470.72 814.578 467.9 815.658 465.14C816.738 462.38 818.238 459.92 820.158 457.76C822.078 455.6 824.298 453.86 826.818 452.54C829.458 451.1 832.158 449.96 834.918 449.12C837.798 448.28 840.678 447.74 843.558 447.5C846.438 447.14 849.318 446.96 852.198 446.96C855.078 446.96 857.958 447.14 860.838 447.5C863.718 447.74 866.538 448.28 869.298 449.12C872.058 449.84 874.698 450.92 877.218 452.36C879.858 453.68 882.138 455.42 884.058 457.58C886.098 459.62 887.658 462.02 888.738 464.78C889.818 467.54 890.358 470.36 890.358 473.24V474.32H868.938V474.14C868.938 472.34 868.278 470.78 866.958 469.46C865.638 468.14 864.138 467.18 862.458 466.58C860.898 465.98 859.218 465.62 857.418 465.5C855.738 465.26 853.998 465.14 852.198 465.14C850.398 465.14 848.598 465.26 846.798 465.5C845.118 465.62 843.438 465.98 841.758 466.58C840.198 467.18 838.698 468.14 837.258 469.46C835.938 470.66 835.278 472.1 835.278 473.78C835.278 475.46 835.818 476.96 836.898 478.28C838.098 479.6 839.418 480.68 840.858 481.52C842.418 482.24 843.978 482.84 845.538 483.32C847.098 483.68 848.718 484.04 850.398 484.4H850.578C853.578 485.12 856.578 485.9 859.578 486.74C862.698 487.58 865.698 488.6 868.578 489.8C871.458 491 874.218 492.44 876.858 494.12C879.618 495.68 882.078 497.6 884.238 499.88C886.398 502.04 888.138 504.62 889.458 507.62C890.778 510.5 891.438 513.5 891.438 516.62C891.438 519.62 890.838 522.56 889.638 525.44C888.558 528.2 886.938 530.66 884.778 532.82C882.738 534.98 880.398 536.78 877.758 538.22C875.118 539.54 872.358 540.62 869.478 541.46C866.598 542.18 863.658 542.66 860.658 542.9C857.778 543.26 854.838 543.44 851.838 543.44ZM959.947 543.44C956.347 543.44 952.747 543.14 949.147 542.54C945.667 541.94 942.307 540.92 939.067 539.48C935.827 537.92 932.827 535.94 930.067 533.54C927.427 531.02 925.267 528.2 923.587 525.08C921.907 521.84 920.707 518.48 919.987 515C919.387 511.4 919.087 507.8 919.087 504.2V486.2C919.087 482.6 919.387 479.06 919.987 475.58C920.707 471.98 921.907 468.62 923.587 465.5C925.267 462.26 927.427 459.44 930.067 457.04C932.827 454.52 935.827 452.54 939.067 451.1C942.307 449.54 945.667 448.46 949.147 447.86C952.747 447.26 956.347 446.96 959.947 446.96C963.547 446.96 967.087 447.26 970.567 447.86C974.167 448.46 977.587 449.54 980.827 451.1C984.067 452.54 987.007 454.52 989.647 457.04C992.407 459.44 994.627 462.26 996.307 465.5C997.987 468.62 999.127 471.98 999.727 475.58C1000.45 479.06 1000.81 482.6 1000.81 486.2V504.2C1000.81 507.8 1000.45 511.4 999.727 515C999.127 518.48 997.987 521.84 996.307 525.08C994.627 528.2 992.407 531.02 989.647 533.54C987.007 535.94 984.067 537.92 980.827 539.48C977.587 540.92 974.167 541.94 970.567 542.54C967.087 543.14 963.547 543.44 959.947 543.44ZM959.947 525.26C962.707 525.26 965.407 524.84 968.047 524C970.687 523.04 972.847 521.54 974.527 519.5C976.327 517.34 977.587 514.94 978.307 512.3C979.027 509.66 979.387 506.96 979.387 504.2V486.2C979.387 483.44 979.027 480.74 978.307 478.1C977.587 475.46 976.327 473.12 974.527 471.08C972.847 468.92 970.687 467.42 968.047 466.58C965.407 465.62 962.707 465.14 959.947 465.14C957.187 465.14 954.487 465.62 951.847 466.58C949.207 467.42 946.987 468.92 945.187 471.08C943.507 473.12 942.307 475.46 941.587 478.1C940.867 480.74 940.507 483.44 940.507 486.2V504.2C940.507 506.96 940.867 509.66 941.587 512.3C942.307 514.94 943.507 517.34 945.187 519.5C946.987 521.54 949.207 523.04 951.847 524C954.487 524.84 957.187 525.26 959.947 525.26ZM1175.27 543.44C1171.67 543.44 1168.07 543.14 1164.47 542.54C1160.99 541.94 1157.63 540.92 1154.39 539.48C1151.27 537.92 1148.39 535.88 1145.75 533.36C1143.11 530.84 1140.95 528.02 1139.27 524.9C1137.71 521.66 1136.57 518.3 1135.85 514.82C1135.25 511.34 1134.95 507.8 1134.95 504.2V486.2C1134.95 482.6 1135.25 479.06 1135.85 475.58C1136.57 472.1 1137.71 468.8 1139.27 465.68C1140.95 462.44 1143.11 459.56 1145.75 457.04C1148.39 454.52 1151.27 452.54 1154.39 451.1C1157.63 449.54 1160.99 448.46 1164.47 447.86C1168.07 447.26 1171.67 446.96 1175.27 446.96C1178.63 446.96 1181.93 447.2 1185.17 447.68C1188.53 448.16 1191.71 449.06 1194.71 450.38C1197.83 451.58 1200.71 453.26 1203.35 455.42C1206.11 457.46 1208.39 459.86 1210.19 462.62C1211.99 465.38 1213.31 468.38 1214.15 471.62C1215.11 474.86 1215.59 478.16 1215.59 481.52V482.42H1194.17V482.06C1194.17 479.66 1193.69 477.32 1192.73 475.04C1191.89 472.76 1190.51 470.84 1188.59 469.28C1186.79 467.72 1184.69 466.64 1182.29 466.04C1180.01 465.44 1177.67 465.14 1175.27 465.14C1172.63 465.14 1169.99 465.62 1167.35 466.58C1164.83 467.54 1162.67 469.04 1160.87 471.08C1159.19 473.12 1157.99 475.52 1157.27 478.28C1156.67 480.92 1156.37 483.56 1156.37 486.2V504.2C1156.37 506.84 1156.67 509.54 1157.27 512.3C1157.99 514.94 1159.19 517.28 1160.87 519.32C1162.67 521.36 1164.83 522.86 1167.35 523.82C1169.99 524.78 1172.63 525.26 1175.27 525.26C1177.67 525.26 1180.01 524.96 1182.29 524.36C1184.69 523.76 1186.79 522.68 1188.59 521.12C1190.51 519.56 1191.89 517.64 1192.73 515.36C1193.69 513.08 1194.17 510.74 1194.17 508.34V507.98H1215.59V508.88C1215.59 512.24 1215.11 515.54 1214.15 518.78C1213.31 522.02 1211.99 525.02 1210.19 527.78C1208.39 530.54 1206.11 533 1203.35 535.16C1200.71 537.2 1197.83 538.88 1194.71 540.2C1191.71 541.4 1188.53 542.24 1185.17 542.72C1181.93 543.2 1178.63 543.44 1175.27 543.44ZM1275.1 543.44C1271.98 543.44 1268.86 543.02 1265.74 542.18C1262.62 541.34 1259.8 539.96 1257.28 538.04C1254.88 536.12 1252.78 533.84 1250.98 531.2C1249.3 528.56 1247.92 525.74 1246.84 522.74C1245.88 519.74 1245.22 516.68 1244.86 513.56C1244.5 510.44 1244.32 507.32 1244.32 504.2V448.4H1265.74V504.2C1265.74 506.84 1266.04 509.48 1266.64 512.12C1267.24 514.64 1268.32 516.98 1269.88 519.14C1271.44 521.18 1273.48 522.74 1276 523.82C1278.52 524.78 1281.1 525.26 1283.74 525.26C1286.38 525.26 1288.96 524.78 1291.48 523.82C1294 522.74 1296.04 521.18 1297.6 519.14C1299.16 516.98 1300.24 514.64 1300.84 512.12C1301.44 509.48 1301.74 506.84 1301.74 504.2V448.4H1323.16V542H1301.74V526.52C1300.66 529.04 1299.22 531.44 1297.42 533.72C1295.62 535.88 1293.52 537.74 1291.12 539.3C1288.84 540.74 1286.26 541.76 1283.38 542.36C1280.62 543.08 1277.86 543.44 1275.1 543.44ZM1404.45 543.44C1401.21 543.44 1397.97 543.02 1394.73 542.18C1391.61 541.34 1388.73 540.02 1386.09 538.22C1383.45 536.3 1381.17 533.96 1379.25 531.2C1377.45 528.44 1376.01 525.56 1374.93 522.56C1373.85 519.44 1373.07 516.26 1372.59 513.02C1372.23 509.78 1372.05 506.54 1372.05 503.3V466.58H1354.41V448.4H1372.05V409.7H1393.47V448.4H1426.95V466.58H1393.47V503.3C1393.47 504.86 1393.47 506.42 1393.47 507.98C1393.59 509.42 1393.77 510.92 1394.01 512.48C1394.37 513.92 1394.73 515.36 1395.09 516.8C1395.57 518.24 1396.23 519.62 1397.07 520.94C1397.91 522.14 1398.99 523.16 1400.31 524C1401.63 524.84 1403.01 525.26 1404.45 525.26C1406.37 525.26 1408.11 524.72 1409.67 523.64C1411.35 522.44 1412.55 521 1413.27 519.32C1414.11 517.64 1414.71 515.84 1415.07 513.92C1415.43 512 1415.61 510.14 1415.61 508.34V507.98H1436.85V508.7C1436.85 511.7 1436.55 514.7 1435.95 517.7C1435.47 520.58 1434.57 523.4 1433.25 526.16C1432.05 528.8 1430.43 531.26 1428.39 533.54C1426.47 535.82 1424.19 537.74 1421.55 539.3C1419.03 540.86 1416.27 541.94 1413.27 542.54C1410.39 543.14 1407.45 543.44 1404.45 543.44ZM1499.6 543.44C1496 543.44 1492.4 543.14 1488.8 542.54C1485.32 541.94 1481.96 540.92 1478.72 539.48C1475.48 537.92 1472.48 535.94 1469.72 533.54C1467.08 531.02 1464.92 528.2 1463.24 525.08C1461.56 521.84 1460.36 518.48 1459.64 515C1459.04 511.4 1458.74 507.8 1458.74 504.2V486.2C1458.74 482.6 1459.04 479.06 1459.64 475.58C1460.36 471.98 1461.56 468.62 1463.24 465.5C1464.92 462.26 1467.08 459.44 1469.72 457.04C1472.48 454.52 1475.48 452.54 1478.72 451.1C1481.96 449.54 1485.32 448.46 1488.8 447.86C1492.4 447.26 1496 446.96 1499.6 446.96C1503.2 446.96 1506.74 447.26 1510.22 447.86C1513.82 448.46 1517.24 449.54 1520.48 451.1C1523.72 452.54 1526.66 454.52 1529.3 457.04C1532.06 459.44 1534.28 462.26 1535.96 465.5C1537.64 468.62 1538.78 471.98 1539.38 475.58C1540.1 479.06 1540.46 482.6 1540.46 486.2V504.2H1480.16C1480.16 506.96 1480.52 509.72 1481.24 512.48C1481.96 515.12 1483.22 517.46 1485.02 519.5C1486.82 521.54 1488.98 523.04 1491.5 524C1494.14 524.84 1496.84 525.26 1499.6 525.26C1501.64 525.26 1503.68 525.14 1505.72 524.9C1507.76 524.66 1509.68 524.12 1511.48 523.28C1513.4 522.44 1515.08 521.24 1516.52 519.68C1517.96 518.12 1518.68 516.32 1518.68 514.28H1540.1C1540.1 517.28 1539.5 520.28 1538.3 523.28C1537.22 526.28 1535.66 528.98 1533.62 531.38C1531.58 533.66 1529.18 535.64 1526.42 537.32C1523.78 538.88 1520.96 540.14 1517.96 541.1C1515.08 541.94 1512.08 542.54 1508.96 542.9C1505.84 543.26 1502.72 543.44 1499.6 543.44ZM1519.04 486.2C1519.04 483.44 1518.68 480.74 1517.96 478.1C1517.24 475.34 1515.98 472.94 1514.18 470.9C1512.38 468.86 1510.16 467.42 1507.52 466.58C1505 465.62 1502.36 465.14 1499.6 465.14C1496.84 465.14 1494.14 465.62 1491.5 466.58C1488.98 467.42 1486.82 468.86 1485.02 470.9C1483.22 472.94 1481.96 475.34 1481.24 478.1C1480.52 480.74 1480.16 483.44 1480.16 486.2H1519.04ZM1769.46 548.48C1766.46 545.6 1763.46 542.72 1760.46 539.84C1757.46 536.96 1754.52 534.02 1751.64 531.02C1748.76 528.02 1745.94 525.02 1743.18 522.02C1740.42 518.9 1737.66 515.78 1734.9 512.66C1732.26 509.54 1729.62 506.42 1726.98 503.3C1724.34 500.06 1721.82 496.76 1719.42 493.4C1717.02 490.04 1714.74 486.62 1712.58 483.14C1710.42 479.54 1708.44 475.88 1706.64 472.16C1704.84 468.44 1703.34 464.6 1702.14 460.64C1700.94 456.56 1700.34 452.48 1700.34 448.4C1700.34 445.4 1700.7 442.46 1701.42 439.58C1702.14 436.58 1703.28 433.82 1704.84 431.3C1706.4 428.66 1708.32 426.38 1710.6 424.46C1712.88 422.54 1715.34 420.98 1717.98 419.78C1720.74 418.58 1723.62 417.74 1726.62 417.26C1729.62 416.78 1732.56 416.54 1735.44 416.54C1739.64 416.54 1743.78 417.08 1747.86 418.16C1752.06 419.24 1755.78 421.16 1759.02 423.92C1762.26 426.56 1764.72 429.86 1766.4 433.82C1768.2 437.66 1769.22 441.68 1769.46 445.88C1769.7 441.68 1770.66 437.66 1772.34 433.82C1774.14 429.86 1776.66 426.56 1779.9 423.92C1783.14 421.16 1786.8 419.24 1790.88 418.16C1795.08 417.08 1799.28 416.54 1803.48 416.54C1806.36 416.54 1809.3 416.78 1812.3 417.26C1815.3 417.74 1818.12 418.58 1820.76 419.78C1823.52 420.98 1826.04 422.54 1828.32 424.46C1830.6 426.38 1832.52 428.66 1834.08 431.3C1835.64 433.82 1836.78 436.58 1837.5 439.58C1838.22 442.46 1838.58 445.4 1838.58 448.4C1838.58 452.48 1837.98 456.56 1836.78 460.64C1835.58 464.6 1834.08 468.44 1832.28 472.16C1830.48 475.88 1828.5 479.54 1826.34 483.14C1824.18 486.62 1821.9 490.04 1819.5 493.4C1817.1 496.76 1814.58 500.06 1811.94 503.3C1809.3 506.42 1806.6 509.54 1803.84 512.66C1801.2 515.78 1798.5 518.9 1795.74 522.02C1792.98 525.02 1790.16 528.02 1787.28 531.02C1784.4 534.02 1781.46 536.96 1778.46 539.84C1775.46 542.72 1772.46 545.6 1769.46 548.48ZM1769.46 524.18C1771.86 522.14 1774.2 520.04 1776.48 517.88C1778.88 515.72 1781.22 513.56 1783.5 511.4C1785.78 509.12 1788 506.84 1790.16 504.56C1792.32 502.28 1794.48 500 1796.64 497.72C1798.8 495.32 1800.9 492.92 1802.94 490.52C1805.1 488.12 1807.14 485.66 1809.06 483.14C1810.98 480.62 1812.84 478.04 1814.64 475.4C1816.44 472.76 1818.06 470.06 1819.5 467.3C1820.94 464.42 1822.14 461.48 1823.1 458.48C1824.18 455.36 1824.72 452.24 1824.72 449.12C1824.72 446.36 1824.18 443.72 1823.1 441.2C1822.02 438.68 1820.4 436.58 1818.24 434.9C1816.2 433.22 1813.86 432.08 1811.22 431.48C1808.58 430.76 1805.94 430.4 1803.3 430.4C1799.46 430.4 1795.62 431 1791.78 432.2C1788.06 433.28 1784.82 435.2 1782.06 437.96C1779.42 440.6 1777.38 443.78 1775.94 447.5C1774.62 451.22 1773.96 455 1773.96 458.84C1773.96 459.2 1773.96 459.5 1773.96 459.74C1773.96 459.98 1774.02 460.28 1774.14 460.64H1764.78C1764.9 460.28 1764.96 459.98 1764.96 459.74C1764.96 459.5 1764.96 459.2 1764.96 458.84C1764.96 455 1764.24 451.22 1762.8 447.5C1761.48 443.78 1759.44 440.6 1756.68 437.96C1754.04 435.2 1750.8 433.28 1746.96 432.2C1743.24 431 1739.46 430.4 1735.62 430.4C1732.98 430.4 1730.34 430.76 1727.7 431.48C1725.06 432.08 1722.66 433.22 1720.5 434.9C1718.46 436.58 1716.9 438.68 1715.82 441.2C1714.74 443.72 1714.2 446.36 1714.2 449.12C1714.2 452.24 1714.68 455.36 1715.64 458.48C1716.72 461.48 1717.98 464.42 1719.42 467.3C1720.86 470.06 1722.48 472.76 1724.28 475.4C1726.08 478.04 1727.94 480.62 1729.86 483.14C1731.78 485.66 1733.76 488.12 1735.8 490.52C1737.96 492.92 1740.12 495.32 1742.28 497.72C1744.44 500 1746.6 502.28 1748.76 504.56C1750.92 506.84 1753.14 509.12 1755.42 511.4C1757.7 513.56 1759.98 515.72 1762.26 517.88C1764.66 520.04 1767.06 522.14 1769.46 524.18Z" fill="white"/>
</svg>
