<svg width="1920" height="768" viewBox="0 0 1920 768" fill="none" xmlns="http://www.w3.org/2000/svg">
<rect width="1920" height="768" fill="#181818"/>
<path d="M611.784 398.25V287.25C611.784 284.35 612.034 281.45 612.534 278.55C613.034 275.65 613.884 272.9 615.084 270.3C616.384 267.7 618.084 265.35 620.184 263.25C622.284 261.15 624.584 259.45 627.084 258.15C629.684 256.75 632.434 255.8 635.334 255.3C638.234 254.8 641.134 254.55 644.034 254.55C646.934 254.55 649.784 254.8 652.584 255.3C655.384 255.8 658.084 256.7 660.684 258C663.284 259.2 665.584 260.85 667.584 262.95C669.684 264.95 671.384 267.25 672.684 269.85C673.984 272.35 674.884 275 675.384 277.8C675.984 280.6 676.284 283.45 676.284 286.35C676.284 288.45 676.084 290.6 675.684 292.8C675.384 294.9 674.784 296.95 673.884 298.95C672.984 300.85 671.784 302.65 670.284 304.35C668.884 305.95 667.234 307.35 665.334 308.55C667.734 309.65 669.884 311.1 671.784 312.9C673.784 314.7 675.384 316.75 676.584 319.05C677.884 321.25 678.734 323.7 679.134 326.4C679.634 329 679.884 331.6 679.884 334.2C679.884 336.8 679.684 339.4 679.284 342C678.984 344.5 678.434 347 677.634 349.5C676.834 352 675.734 354.4 674.334 356.7C673.034 358.9 671.334 360.85 669.234 362.55C667.234 364.15 664.984 365.3 662.484 366C659.984 366.8 657.434 367.2 654.834 367.2C652.734 367.2 650.634 367 648.534 366.6C646.534 366.3 644.584 365.7 642.684 364.8C640.784 363.9 639.034 362.75 637.434 361.35C635.934 359.85 634.684 358.2 633.684 356.4V398.25H611.784ZM645.684 349.2C647.584 349.2 649.384 348.8 651.084 348C652.884 347.1 654.284 345.85 655.284 344.25C656.384 342.65 657.084 340.9 657.384 339C657.784 337.1 657.984 335.2 657.984 333.3C657.984 331.4 657.784 329.55 657.384 327.75C656.984 325.85 656.234 324.15 655.134 322.65C654.034 321.05 652.584 319.9 650.784 319.2C648.984 318.4 647.134 318 645.234 318H640.584V300H645.234C646.734 300 648.134 299.6 649.434 298.8C650.834 298 651.884 296.95 652.584 295.65C653.284 294.25 653.734 292.8 653.934 291.3C654.234 289.8 654.384 288.3 654.384 286.8C654.384 285.1 654.234 283.45 653.934 281.85C653.734 280.15 653.184 278.6 652.284 277.2C651.484 275.7 650.334 274.55 648.834 273.75C647.334 272.95 645.734 272.55 644.034 272.55C642.334 272.55 640.734 273 639.234 273.9C637.734 274.8 636.534 276 635.634 277.5C634.834 278.9 634.284 280.45 633.984 282.15C633.784 283.85 633.684 285.55 633.684 287.25V341.55C633.784 342.85 634.234 344.05 635.034 345.15C635.834 346.25 636.834 347.1 638.034 347.7C639.234 348.3 640.484 348.7 641.784 348.9C643.084 349.1 644.384 349.2 645.684 349.2ZM735.176 367.2C732.176 367.2 729.176 366.95 726.176 366.45C723.176 366.05 720.276 365.2 717.476 363.9C714.776 362.6 712.276 360.95 709.976 358.95C707.776 356.85 705.926 354.5 704.426 351.9C703.026 349.3 702.026 346.5 701.426 343.5C700.826 340.5 700.526 337.5 700.526 334.5V319.5C700.526 316.5 700.826 313.5 701.426 310.5C702.026 307.5 703.026 304.7 704.426 302.1C705.926 299.5 707.776 297.15 709.976 295.05C712.276 292.95 714.776 291.3 717.476 290.1C720.276 288.8 723.176 287.95 726.176 287.55C729.176 287.05 732.176 286.8 735.176 286.8C738.176 286.8 741.176 287.05 744.176 287.55C747.176 287.95 750.026 288.8 752.726 290.1C755.526 291.3 758.026 292.95 760.226 295.05C762.526 297.15 764.376 299.5 765.776 302.1C767.276 304.7 768.326 307.5 768.926 310.5C769.526 313.5 769.826 316.5 769.826 319.5V335.25H720.776C720.776 337.25 721.076 339.25 721.676 341.25C722.276 343.15 723.226 344.85 724.526 346.35C725.826 347.75 727.426 348.8 729.326 349.5C731.226 350.2 733.176 350.55 735.176 350.55C736.676 350.55 738.176 350.45 739.676 350.25C741.276 350.05 742.726 349.65 744.026 349.05C745.426 348.35 746.626 347.4 747.626 346.2C748.726 344.9 749.276 343.5 749.276 342H769.526C769.526 344.7 769.026 347.3 768.026 349.8C767.126 352.3 765.826 354.6 764.126 356.7C762.426 358.7 760.426 360.4 758.126 361.8C755.826 363.2 753.376 364.3 750.776 365.1C748.276 365.9 745.676 366.45 742.976 366.75C740.376 367.05 737.776 367.2 735.176 367.2ZM749.576 318.75C749.576 316.75 749.276 314.8 748.676 312.9C748.076 310.9 747.126 309.2 745.826 307.8C744.526 306.3 742.926 305.2 741.026 304.5C739.126 303.8 737.176 303.45 735.176 303.45C733.176 303.45 731.226 303.8 729.326 304.5C727.426 305.2 725.826 306.3 724.526 307.8C723.226 309.2 722.276 310.9 721.676 312.9C721.076 314.8 720.776 316.75 720.776 318.75H749.576ZM834.717 367.2C831.917 367.2 829.117 366.85 826.317 366.15C823.617 365.45 821.117 364.3 818.817 362.7C816.617 361 814.667 359 812.967 356.7C811.367 354.3 810.067 351.8 809.067 349.2C808.167 346.5 807.567 343.8 807.267 341.1C806.967 338.3 806.817 335.45 806.817 332.55V306H794.067V288H806.817V255.75H828.567V288H854.517V306H828.567V332.55C828.567 333.65 828.567 334.75 828.567 335.85C828.667 336.85 828.767 337.9 828.867 339C829.067 340.1 829.267 341.15 829.467 342.15C829.667 343.15 829.967 344.15 830.367 345.15C830.767 346.15 831.317 347.1 832.017 348C832.817 348.8 833.717 349.2 834.717 349.2C836.017 349.2 837.067 348.7 837.867 347.7C838.767 346.7 839.417 345.6 839.817 344.4C840.217 343.2 840.467 342 840.567 340.8C840.767 339.5 840.867 338.25 840.867 337.05V336.75H862.767V337.35C862.767 339.95 862.517 342.5 862.017 345C861.517 347.5 860.717 349.95 859.617 352.35C858.517 354.65 857.117 356.8 855.417 358.8C853.717 360.8 851.767 362.45 849.567 363.75C847.367 364.95 844.967 365.8 842.367 366.3C839.867 366.9 837.317 367.2 834.717 367.2ZM881.609 366V255.75H903.509V299.85C904.409 297.95 905.559 296.15 906.959 294.45C908.359 292.75 909.959 291.3 911.759 290.1C913.559 288.9 915.509 288.05 917.609 287.55C919.809 287.05 921.959 286.8 924.059 286.8C926.659 286.8 929.209 287.2 931.709 288C934.209 288.7 936.459 289.9 938.459 291.6C940.459 293.2 942.109 295.1 943.409 297.3C944.709 299.5 945.759 301.85 946.559 304.35C947.359 306.75 947.859 309.25 948.059 311.85C948.359 314.35 948.509 316.9 948.509 319.5V366H926.609V319.5C926.609 317.7 926.409 315.95 926.009 314.25C925.709 312.45 925.059 310.85 924.059 309.45C923.159 307.95 921.859 306.8 920.159 306C918.559 305.2 916.859 304.8 915.059 304.8C913.259 304.8 911.509 305.2 909.809 306C908.209 306.8 906.909 307.95 905.909 309.45C905.009 310.85 904.359 312.45 903.959 314.25C903.659 315.95 903.509 317.7 903.509 319.5V366H881.609ZM1005 367.2C1002 367.2 999 366.95 996 366.45C993 366.05 990.1 365.2 987.3 363.9C984.6 362.6 982.1 360.95 979.8 358.95C977.6 356.85 975.75 354.5 974.25 351.9C972.85 349.3 971.85 346.5 971.25 343.5C970.65 340.5 970.35 337.5 970.35 334.5V319.5C970.35 316.5 970.65 313.5 971.25 310.5C971.85 307.5 972.85 304.7 974.25 302.1C975.75 299.5 977.6 297.15 979.8 295.05C982.1 292.95 984.6 291.3 987.3 290.1C990.1 288.8 993 287.95 996 287.55C999 287.05 1002 286.8 1005 286.8C1008 286.8 1011 287.05 1014 287.55C1017 287.95 1019.85 288.8 1022.55 290.1C1025.35 291.3 1027.85 292.95 1030.05 295.05C1032.35 297.15 1034.2 299.5 1035.6 302.1C1037.1 304.7 1038.15 307.5 1038.75 310.5C1039.35 313.5 1039.65 316.5 1039.65 319.5V335.25H990.6C990.6 337.25 990.9 339.25 991.5 341.25C992.1 343.15 993.05 344.85 994.35 346.35C995.65 347.75 997.25 348.8 999.15 349.5C1001.05 350.2 1003 350.55 1005 350.55C1006.5 350.55 1008 350.45 1009.5 350.25C1011.1 350.05 1012.55 349.65 1013.85 349.05C1015.25 348.35 1016.45 347.4 1017.45 346.2C1018.55 344.9 1019.1 343.5 1019.1 342H1039.35C1039.35 344.7 1038.85 347.3 1037.85 349.8C1036.95 352.3 1035.65 354.6 1033.95 356.7C1032.25 358.7 1030.25 360.4 1027.95 361.8C1025.65 363.2 1023.2 364.3 1020.6 365.1C1018.1 365.9 1015.5 366.45 1012.8 366.75C1010.2 367.05 1007.6 367.2 1005 367.2ZM1019.4 318.75C1019.4 316.75 1019.1 314.8 1018.5 312.9C1017.9 310.9 1016.95 309.2 1015.65 307.8C1014.35 306.3 1012.75 305.2 1010.85 304.5C1008.95 303.8 1007 303.45 1005 303.45C1003 303.45 1001.05 303.8 999.15 304.5C997.25 305.2 995.65 306.3 994.35 307.8C993.05 309.2 992.1 310.9 991.5 312.9C990.9 314.8 990.6 316.75 990.6 318.75H1019.4ZM1104.54 367.2C1101.74 367.2 1098.94 366.85 1096.14 366.15C1093.44 365.45 1090.94 364.3 1088.64 362.7C1086.44 361 1084.49 359 1082.79 356.7C1081.19 354.3 1079.89 351.8 1078.89 349.2C1077.99 346.5 1077.39 343.8 1077.09 341.1C1076.79 338.3 1076.64 335.45 1076.64 332.55V306H1063.89V288H1076.64V255.75H1098.39V288H1124.34V306H1098.39V332.55C1098.39 333.65 1098.39 334.75 1098.39 335.85C1098.49 336.85 1098.59 337.9 1098.69 339C1098.89 340.1 1099.09 341.15 1099.29 342.15C1099.49 343.15 1099.79 344.15 1100.19 345.15C1100.59 346.15 1101.14 347.1 1101.84 348C1102.64 348.8 1103.54 349.2 1104.54 349.2C1105.84 349.2 1106.89 348.7 1107.69 347.7C1108.59 346.7 1109.24 345.6 1109.64 344.4C1110.04 343.2 1110.29 342 1110.39 340.8C1110.59 339.5 1110.69 338.25 1110.69 337.05V336.75H1132.59V337.35C1132.59 339.95 1132.34 342.5 1131.84 345C1131.34 347.5 1130.54 349.95 1129.44 352.35C1128.34 354.65 1126.94 356.8 1125.24 358.8C1123.54 360.8 1121.59 362.45 1119.39 363.75C1117.19 364.95 1114.79 365.8 1112.19 366.3C1109.69 366.9 1107.14 367.2 1104.54 367.2ZM1154.28 366V255.75H1176.03V318L1197.33 288H1222.38L1193.88 323.85L1222.38 366H1198.08L1181.88 339L1176.03 346.35V366H1154.28ZM1265.82 367.2C1263.72 367.2 1261.57 367.05 1259.37 366.75C1257.27 366.45 1255.22 365.9 1253.22 365.1C1251.22 364.3 1249.37 363.2 1247.67 361.8C1245.97 360.4 1244.52 358.8 1243.32 357C1242.22 355.2 1241.42 353.25 1240.92 351.15C1240.42 348.95 1240.17 346.8 1240.17 344.7C1240.17 341.7 1240.62 338.8 1241.52 336C1242.42 333.1 1243.82 330.6 1245.72 328.5C1247.72 326.3 1250.02 324.5 1252.62 323.1C1255.22 321.6 1257.92 320.45 1260.72 319.65C1263.62 318.85 1266.52 318.3 1269.42 318C1272.32 317.7 1275.22 317.55 1278.12 317.55H1288.02V315.3C1288.02 313.6 1287.72 311.95 1287.12 310.35C1286.52 308.75 1285.52 307.4 1284.12 306.3C1282.82 305.2 1281.32 304.45 1279.62 304.05C1278.02 303.65 1276.37 303.45 1274.67 303.45C1273.17 303.45 1271.67 303.55 1270.17 303.75C1268.77 303.95 1267.37 304.4 1265.97 305.1C1264.67 305.7 1263.57 306.6 1262.67 307.8C1261.77 309 1261.32 310.35 1261.32 311.85V312H1241.07V311.4C1241.07 308.8 1241.52 306.25 1242.42 303.75C1243.32 301.25 1244.57 299.05 1246.17 297.15C1247.87 295.15 1249.82 293.45 1252.02 292.05C1254.32 290.65 1256.72 289.6 1259.22 288.9C1261.72 288.1 1264.27 287.55 1266.87 287.25C1269.47 286.95 1272.07 286.8 1274.67 286.8C1277.47 286.8 1280.22 287 1282.92 287.4C1285.72 287.7 1288.42 288.35 1291.02 289.35C1293.62 290.35 1296.02 291.7 1298.22 293.4C1300.52 295.1 1302.42 297.15 1303.92 299.55C1305.52 301.85 1306.62 304.35 1307.22 307.05C1307.92 309.75 1308.27 312.5 1308.27 315.3V366H1288.02V354.9C1287.02 356.9 1285.72 358.7 1284.12 360.3C1282.52 361.9 1280.72 363.25 1278.72 364.35C1276.82 365.45 1274.77 366.2 1272.57 366.6C1270.37 367 1268.12 367.2 1265.82 367.2ZM1274.07 350.55C1275.87 350.55 1277.67 350.35 1279.47 349.95C1281.27 349.45 1282.82 348.6 1284.12 347.4C1285.52 346.2 1286.52 344.75 1287.12 343.05C1287.72 341.25 1288.02 339.45 1288.02 337.65V334.2H1278.12C1276.92 334.2 1275.72 334.25 1274.52 334.35C1273.32 334.35 1272.12 334.45 1270.92 334.65C1269.72 334.85 1268.52 335.15 1267.32 335.55C1266.22 335.85 1265.12 336.3 1264.02 336.9C1263.02 337.4 1262.17 338.2 1261.47 339.3C1260.77 340.3 1260.42 341.4 1260.42 342.6C1260.42 344.1 1260.92 345.45 1261.92 346.65C1262.92 347.75 1264.07 348.6 1265.37 349.2C1266.77 349.7 1268.22 350.05 1269.72 350.25C1271.22 350.45 1272.67 350.55 1274.07 350.55ZM464.978 494.768C463.314 494.768 461.682 494.512 460.082 494C458.482 493.552 457.042 492.816 455.762 491.792C454.482 490.704 453.426 489.456 452.594 488.048C451.762 486.64 451.09 485.168 450.578 483.632C450.066 482.032 449.714 480.432 449.522 478.832C449.394 477.168 449.33 475.504 449.33 473.84V444.08H463.346V473.84C463.346 474.992 463.442 476.144 463.634 477.296C463.89 478.384 464.306 479.408 464.882 480.368C465.522 481.264 466.354 481.968 467.378 482.48C468.466 482.992 469.586 483.248 470.738 483.248C471.89 483.248 472.978 482.992 474.002 482.48C475.09 481.968 475.922 481.264 476.498 480.368C477.138 479.408 477.554 478.384 477.746 477.296C478.002 476.144 478.13 474.992 478.13 473.84V444.08H492.146V494H478.13V486.416C477.554 487.632 476.818 488.784 475.922 489.872C475.026 490.96 474.002 491.888 472.85 492.656C471.698 493.424 470.418 493.968 469.01 494.288C467.666 494.608 466.322 494.768 464.978 494.768ZM506.892 494V444.08H520.908V451.664C521.484 450.448 522.22 449.296 523.116 448.208C524.012 447.12 525.036 446.192 526.188 445.424C527.34 444.656 528.588 444.112 529.932 443.792C531.34 443.472 532.716 443.312 534.06 443.312C535.724 443.312 537.356 443.568 538.956 444.08C540.556 444.528 541.996 445.296 543.276 446.384C544.556 447.408 545.612 448.624 546.444 450.032C547.276 451.44 547.948 452.944 548.46 454.544C548.972 456.08 549.292 457.68 549.42 459.344C549.612 460.944 549.708 462.576 549.708 464.24V494H535.692V464.24C535.692 463.088 535.564 461.968 535.308 460.88C535.116 459.728 534.7 458.704 534.06 457.808C533.484 456.848 532.652 456.112 531.564 455.6C530.54 455.088 529.452 454.832 528.3 454.832C527.148 454.832 526.028 455.088 524.94 455.6C523.916 456.112 523.084 456.848 522.444 457.808C521.868 458.704 521.452 459.728 521.196 460.88C521.004 461.968 520.908 463.088 520.908 464.24V494H506.892ZM570.023 494V444.08H583.943V452.912C584.519 451.568 585.191 450.288 585.959 449.072C586.791 447.856 587.751 446.8 588.839 445.904C589.991 445.008 591.271 444.368 592.679 443.984C594.087 443.536 595.495 443.312 596.903 443.312C598.375 443.312 599.783 443.536 601.127 443.984C602.535 444.432 603.751 445.136 604.775 446.096C605.799 447.056 606.631 448.208 607.271 449.552C607.911 450.832 608.391 452.176 608.711 453.584C609.095 454.928 609.351 456.304 609.479 457.712C609.607 459.12 609.671 460.528 609.671 461.936H595.655C595.655 461.168 595.591 460.4 595.463 459.632C595.399 458.8 595.207 458.032 594.887 457.328C594.567 456.56 594.055 455.952 593.351 455.504C592.647 455.056 591.911 454.832 591.143 454.832C590.247 454.832 589.383 455.056 588.551 455.504C587.719 455.888 587.015 456.464 586.439 457.232C585.927 457.936 585.511 458.704 585.191 459.536C584.871 460.368 584.615 461.232 584.423 462.128C584.231 463.024 584.103 463.92 584.039 464.816C583.975 465.712 583.943 466.608 583.943 467.504V494H570.023ZM643.425 494.768C641.505 494.768 639.585 494.608 637.665 494.288C635.745 494.032 633.889 493.488 632.097 492.656C630.369 491.824 628.769 490.768 627.297 489.488C625.889 488.144 624.705 486.64 623.745 484.976C622.849 483.312 622.209 481.52 621.825 479.6C621.441 477.68 621.249 475.76 621.249 473.84V464.24C621.249 462.32 621.441 460.4 621.825 458.48C622.209 456.56 622.849 454.768 623.745 453.104C624.705 451.44 625.889 449.936 627.297 448.592C628.769 447.248 630.369 446.192 632.097 445.424C633.889 444.592 635.745 444.048 637.665 443.792C639.585 443.472 641.505 443.312 643.425 443.312C645.345 443.312 647.265 443.472 649.185 443.792C651.105 444.048 652.929 444.592 654.657 445.424C656.449 446.192 658.049 447.248 659.457 448.592C660.929 449.936 662.113 451.44 663.009 453.104C663.969 454.768 664.641 456.56 665.025 458.48C665.409 460.4 665.601 462.32 665.601 464.24V474.32H634.209C634.209 475.6 634.401 476.88 634.785 478.16C635.169 479.376 635.777 480.464 636.609 481.424C637.441 482.32 638.465 482.992 639.681 483.44C640.897 483.888 642.145 484.112 643.425 484.112C644.385 484.112 645.345 484.048 646.305 483.92C647.329 483.792 648.257 483.536 649.089 483.152C649.985 482.704 650.753 482.096 651.393 481.328C652.097 480.496 652.449 479.6 652.449 478.64H665.409C665.409 480.368 665.089 482.032 664.449 483.632C663.873 485.232 663.041 486.704 661.953 488.048C660.865 489.328 659.585 490.416 658.113 491.312C656.641 492.208 655.073 492.912 653.409 493.424C651.809 493.936 650.145 494.288 648.417 494.48C646.753 494.672 645.089 494.768 643.425 494.768ZM652.641 463.76C652.641 462.48 652.449 461.232 652.065 460.016C651.681 458.736 651.073 457.648 650.241 456.752C649.409 455.792 648.385 455.088 647.169 454.64C645.953 454.192 644.705 453.968 643.425 453.968C642.145 453.968 640.897 454.192 639.681 454.64C638.465 455.088 637.441 455.792 636.609 456.752C635.777 457.648 635.169 458.736 634.785 460.016C634.401 461.232 634.209 462.48 634.209 463.76H652.641ZM681.692 494V482.48H694.748V434.96H683.228V423.44H708.764V482.48H720.284V494H681.692ZM758.55 494.768C756.63 494.768 754.71 494.608 752.79 494.288C750.87 494.032 749.014 493.488 747.222 492.656C745.494 491.824 743.894 490.768 742.422 489.488C741.014 488.144 739.83 486.64 738.87 484.976C737.974 483.312 737.334 481.52 736.95 479.6C736.566 477.68 736.374 475.76 736.374 473.84V464.24C736.374 462.32 736.566 460.4 736.95 458.48C737.334 456.56 737.974 454.768 738.87 453.104C739.83 451.44 741.014 449.936 742.422 448.592C743.894 447.248 745.494 446.192 747.222 445.424C749.014 444.592 750.87 444.048 752.79 443.792C754.71 443.472 756.63 443.312 758.55 443.312C760.47 443.312 762.39 443.472 764.31 443.792C766.23 444.048 768.054 444.592 769.782 445.424C771.574 446.192 773.174 447.248 774.582 448.592C776.054 449.936 777.238 451.44 778.134 453.104C779.094 454.768 779.766 456.56 780.15 458.48C780.534 460.4 780.726 462.32 780.726 464.24V474.32H749.334C749.334 475.6 749.526 476.88 749.91 478.16C750.294 479.376 750.902 480.464 751.734 481.424C752.566 482.32 753.59 482.992 754.806 483.44C756.022 483.888 757.27 484.112 758.55 484.112C759.51 484.112 760.47 484.048 761.43 483.92C762.454 483.792 763.382 483.536 764.214 483.152C765.11 482.704 765.878 482.096 766.518 481.328C767.222 480.496 767.574 479.6 767.574 478.64H780.534C780.534 480.368 780.214 482.032 779.574 483.632C778.998 485.232 778.166 486.704 777.078 488.048C775.99 489.328 774.71 490.416 773.238 491.312C771.766 492.208 770.198 492.912 768.534 493.424C766.934 493.936 765.27 494.288 763.542 494.48C761.878 494.672 760.214 494.768 758.55 494.768ZM767.766 463.76C767.766 462.48 767.574 461.232 767.19 460.016C766.806 458.736 766.198 457.648 765.366 456.752C764.534 455.792 763.51 455.088 762.294 454.64C761.078 454.192 759.83 453.968 758.55 453.968C757.27 453.968 756.022 454.192 754.806 454.64C753.59 455.088 752.566 455.792 751.734 456.752C750.902 457.648 750.294 458.736 749.91 460.016C749.526 461.232 749.334 462.48 749.334 463.76H767.766ZM810.353 494.768C809.009 494.768 807.633 494.672 806.225 494.48C804.881 494.288 803.569 493.936 802.289 493.424C801.009 492.912 799.825 492.208 798.737 491.312C797.649 490.416 796.721 489.392 795.953 488.24C795.249 487.088 794.737 485.84 794.417 484.496C794.097 483.088 793.937 481.712 793.937 480.368C793.937 478.448 794.225 476.592 794.801 474.8C795.377 472.944 796.273 471.344 797.489 470C798.769 468.592 800.241 467.44 801.905 466.544C803.569 465.584 805.297 464.848 807.089 464.336C808.945 463.824 810.801 463.472 812.656 463.28C814.513 463.088 816.369 462.992 818.225 462.992H824.561V461.552C824.561 460.464 824.369 459.408 823.985 458.384C823.601 457.36 822.961 456.496 822.065 455.792C821.233 455.088 820.273 454.608 819.185 454.352C818.161 454.096 817.105 453.968 816.017 453.968C815.057 453.968 814.097 454.032 813.137 454.16C812.241 454.288 811.345 454.576 810.449 455.024C809.617 455.408 808.913 455.984 808.337 456.752C807.761 457.52 807.473 458.384 807.473 459.344V459.44H794.513V459.056C794.513 457.392 794.801 455.76 795.377 454.16C795.953 452.56 796.753 451.152 797.777 449.936C798.865 448.656 800.113 447.568 801.521 446.672C802.993 445.776 804.529 445.104 806.129 444.656C807.729 444.144 809.361 443.792 811.025 443.6C812.689 443.408 814.353 443.312 816.017 443.312C817.809 443.312 819.569 443.44 821.297 443.696C823.089 443.888 824.817 444.304 826.481 444.944C828.145 445.584 829.681 446.448 831.089 447.536C832.561 448.624 833.777 449.936 834.737 451.472C835.761 452.944 836.465 454.544 836.849 456.272C837.297 458 837.521 459.76 837.521 461.552V494H824.561V486.896C823.921 488.176 823.089 489.328 822.065 490.352C821.041 491.376 819.889 492.24 818.609 492.944C817.393 493.648 816.081 494.128 814.673 494.384C813.265 494.64 811.825 494.768 810.353 494.768ZM815.633 484.112C816.785 484.112 817.937 483.984 819.089 483.728C820.241 483.408 821.233 482.864 822.065 482.096C822.961 481.328 823.601 480.4 823.985 479.312C824.369 478.16 824.561 477.008 824.561 475.856V473.648H818.225C817.457 473.648 816.689 473.68 815.921 473.744C815.153 473.744 814.385 473.808 813.617 473.936C812.849 474.064 812.081 474.256 811.312 474.512C810.609 474.704 809.905 474.992 809.201 475.376C808.561 475.696 808.017 476.208 807.569 476.912C807.121 477.552 806.897 478.256 806.897 479.024C806.897 479.984 807.217 480.848 807.857 481.616C808.497 482.32 809.233 482.864 810.065 483.248C810.961 483.568 811.889 483.792 812.849 483.92C813.809 484.048 814.737 484.112 815.633 484.112ZM873.579 494.768C871.979 494.768 870.347 494.672 868.683 494.48C867.083 494.352 865.515 494.096 863.979 493.712C862.443 493.264 860.939 492.656 859.467 491.888C858.059 491.12 856.779 490.16 855.627 489.008C854.539 487.856 853.675 486.512 853.035 484.976C852.395 483.44 852.075 481.872 852.075 480.272V479.6H865.035V479.696C865.035 480.592 865.387 481.36 866.091 482C866.795 482.64 867.563 483.12 868.395 483.44C869.227 483.696 870.059 483.888 870.891 484.016C871.787 484.08 872.683 484.112 873.579 484.112C874.411 484.112 875.243 484.08 876.075 484.016C876.971 483.952 877.835 483.792 878.667 483.536C879.499 483.28 880.267 482.896 880.971 482.384C881.739 481.808 882.123 481.072 882.123 480.176C882.123 479.344 881.835 478.608 881.259 477.968C880.683 477.328 880.011 476.816 879.243 476.432C878.539 476.048 877.771 475.76 876.939 475.568C876.171 475.376 875.371 475.184 874.539 474.992C873.707 474.8 872.875 474.608 872.043 474.416C871.275 474.224 870.475 474 869.643 473.744C868.875 473.488 868.107 473.232 867.339 472.976C866.571 472.72 865.803 472.432 865.035 472.112C864.267 471.792 863.499 471.44 862.731 471.056C862.027 470.672 861.323 470.256 860.619 469.808C859.915 469.36 859.243 468.88 858.603 468.368C857.963 467.856 857.355 467.312 856.779 466.736C856.203 466.096 855.659 465.424 855.147 464.72C854.699 464.016 854.315 463.28 853.995 462.512C853.675 461.744 853.419 460.976 853.227 460.208C853.099 459.376 853.035 458.544 853.035 457.712C853.035 456.112 853.323 454.576 853.899 453.104C854.475 451.632 855.307 450.32 856.395 449.168C857.483 448.016 858.699 447.056 860.043 446.288C861.451 445.52 862.891 444.912 864.363 444.464C865.899 444.016 867.435 443.728 868.971 443.6C870.571 443.408 872.171 443.312 873.771 443.312C875.371 443.312 876.939 443.408 878.475 443.6C880.075 443.728 881.611 444.016 883.083 444.464C884.619 444.912 886.091 445.52 887.499 446.288C888.907 447.056 890.123 448.016 891.147 449.168C892.235 450.32 893.067 451.664 893.643 453.2C894.219 454.672 894.507 456.208 894.507 457.808V458.48H881.547V458.288C881.547 457.456 881.259 456.752 880.683 456.176C880.107 455.536 879.435 455.056 878.667 454.736C877.899 454.416 877.099 454.224 876.267 454.16C875.435 454.032 874.603 453.968 873.771 453.968C872.939 453.968 872.107 454 871.275 454.064C870.507 454.128 869.739 454.288 868.971 454.544C868.267 454.8 867.595 455.216 866.955 455.792C866.315 456.368 865.995 457.04 865.995 457.808C865.995 458.64 866.283 459.408 866.859 460.112C867.435 460.752 868.075 461.264 868.779 461.648C869.547 461.968 870.315 462.256 871.083 462.512C871.915 462.704 872.715 462.896 873.483 463.088C874.315 463.28 875.115 463.472 875.883 463.664C876.715 463.856 877.515 464.08 878.283 464.336C879.115 464.528 879.915 464.784 880.683 465.104C881.515 465.36 882.315 465.648 883.083 465.968C883.851 466.288 884.587 466.64 885.291 467.024C886.059 467.408 886.795 467.824 887.499 468.272C888.203 468.72 888.875 469.2 889.515 469.712C890.155 470.224 890.763 470.8 891.339 471.44C891.915 472.016 892.427 472.656 892.875 473.36C893.323 474 893.707 474.704 894.027 475.472C894.411 476.24 894.667 477.04 894.795 477.872C894.987 478.704 895.083 479.536 895.083 480.368C895.083 481.968 894.763 483.536 894.123 485.072C893.483 486.544 892.587 487.856 891.435 489.008C890.347 490.16 889.067 491.12 887.595 491.888C886.187 492.656 884.683 493.264 883.083 493.712C881.547 494.096 879.979 494.352 878.379 494.48C876.779 494.672 875.179 494.768 873.579 494.768ZM931.238 494.768C929.318 494.768 927.398 494.608 925.478 494.288C923.558 494.032 921.702 493.488 919.91 492.656C918.182 491.824 916.582 490.768 915.109 489.488C913.702 488.144 912.518 486.64 911.558 484.976C910.662 483.312 910.022 481.52 909.638 479.6C909.254 477.68 909.062 475.76 909.062 473.84V464.24C909.062 462.32 909.254 460.4 909.638 458.48C910.022 456.56 910.662 454.768 911.558 453.104C912.518 451.44 913.702 449.936 915.109 448.592C916.582 447.248 918.182 446.192 919.91 445.424C921.702 444.592 923.558 444.048 925.478 443.792C927.398 443.472 929.318 443.312 931.238 443.312C933.158 443.312 935.078 443.472 936.998 443.792C938.918 444.048 940.742 444.592 942.47 445.424C944.262 446.192 945.862 447.248 947.27 448.592C948.742 449.936 949.926 451.44 950.822 453.104C951.782 454.768 952.454 456.56 952.838 458.48C953.222 460.4 953.414 462.32 953.414 464.24V474.32H922.022C922.022 475.6 922.214 476.88 922.598 478.16C922.982 479.376 923.59 480.464 924.422 481.424C925.254 482.32 926.278 482.992 927.494 483.44C928.71 483.888 929.958 484.112 931.238 484.112C932.198 484.112 933.158 484.048 934.118 483.92C935.142 483.792 936.07 483.536 936.902 483.152C937.798 482.704 938.566 482.096 939.206 481.328C939.91 480.496 940.262 479.6 940.262 478.64H953.222C953.222 480.368 952.902 482.032 952.262 483.632C951.686 485.232 950.854 486.704 949.766 488.048C948.678 489.328 947.398 490.416 945.926 491.312C944.454 492.208 942.886 492.912 941.222 493.424C939.622 493.936 937.958 494.288 936.23 494.48C934.566 494.672 932.902 494.768 931.238 494.768ZM940.454 463.76C940.454 462.48 940.262 461.232 939.878 460.016C939.494 458.736 938.886 457.648 938.054 456.752C937.222 455.792 936.198 455.088 934.982 454.64C933.766 454.192 932.518 453.968 931.238 453.968C929.958 453.968 928.71 454.192 927.494 454.64C926.278 455.088 925.254 455.792 924.422 456.752C923.59 457.648 922.982 458.736 922.598 460.016C922.214 461.232 922.022 462.48 922.022 463.76H940.454ZM982.656 494.768C980.992 494.768 979.328 494.544 977.664 494.096C976.064 493.648 974.624 492.912 973.344 491.888C972.064 490.8 970.976 489.552 970.08 488.144C969.184 486.736 968.48 485.232 967.968 483.632C967.456 482.032 967.104 480.432 966.912 478.832C966.72 477.168 966.624 475.504 966.624 473.84V464.24C966.624 462.576 966.72 460.944 966.912 459.344C967.104 457.68 967.456 456.048 967.968 454.448C968.48 452.848 969.184 451.344 970.08 449.936C970.976 448.528 972.064 447.312 973.344 446.288C974.624 445.2 976.064 444.432 977.664 443.984C979.328 443.536 980.992 443.312 982.656 443.312C984.064 443.312 985.472 443.472 986.88 443.792C988.288 444.112 989.568 444.656 990.72 445.424C991.936 446.192 992.992 447.12 993.888 448.208C994.848 449.296 995.616 450.48 996.192 451.76V423.44H1010.21V494H996.192V486.32C995.616 487.6 994.848 488.784 993.888 489.872C992.992 490.96 991.936 491.888 990.72 492.656C989.568 493.424 988.288 493.968 986.88 494.288C985.472 494.608 984.064 494.768 982.656 494.768ZM988.416 483.248C989.568 483.248 990.688 483.024 991.776 482.576C992.864 482.064 993.76 481.36 994.464 480.464C995.168 479.504 995.616 478.448 995.808 477.296C996.064 476.144 996.192 474.992 996.192 473.84V464.24C996.192 463.088 996.064 461.936 995.808 460.784C995.616 459.632 995.168 458.608 994.464 457.712C993.76 456.752 992.864 456.048 991.776 455.6C990.688 455.088 989.568 454.832 988.416 454.832C987.264 454.832 986.144 455.088 985.056 455.6C983.968 456.048 983.072 456.752 982.368 457.712C981.664 458.608 981.184 459.632 980.928 460.784C980.736 461.936 980.64 463.088 980.64 464.24V473.84C980.64 474.992 980.736 476.144 980.928 477.296C981.184 478.448 981.664 479.504 982.368 480.464C983.072 481.36 983.968 482.064 985.056 482.576C986.144 483.024 987.264 483.248 988.416 483.248ZM1082.52 514.64V444.08H1096.53V451.76C1097.11 450.48 1097.85 449.296 1098.74 448.208C1099.7 447.12 1100.76 446.192 1101.91 445.424C1103.13 444.656 1104.44 444.112 1105.85 443.792C1107.25 443.472 1108.66 443.312 1110.07 443.312C1111.73 443.312 1113.37 443.536 1114.97 443.984C1116.63 444.432 1118.1 445.2 1119.38 446.288C1120.66 447.312 1121.75 448.528 1122.65 449.936C1123.54 451.344 1124.25 452.848 1124.76 454.448C1125.27 456.048 1125.62 457.68 1125.81 459.344C1126.01 460.944 1126.1 462.576 1126.1 464.24V473.84C1126.1 475.504 1126.01 477.168 1125.81 478.832C1125.62 480.432 1125.27 482.032 1124.76 483.632C1124.25 485.232 1123.54 486.736 1122.65 488.144C1121.75 489.552 1120.66 490.8 1119.38 491.888C1118.1 492.912 1116.63 493.648 1114.97 494.096C1113.37 494.544 1111.73 494.768 1110.07 494.768C1108.66 494.768 1107.25 494.608 1105.85 494.288C1104.44 493.968 1103.13 493.424 1101.91 492.656C1100.76 491.888 1099.7 490.96 1098.74 489.872C1097.85 488.784 1097.11 487.6 1096.53 486.32V514.64H1082.52ZM1104.31 483.248C1105.46 483.248 1106.58 483.024 1107.67 482.576C1108.76 482.064 1109.65 481.36 1110.36 480.464C1111.06 479.504 1111.51 478.448 1111.7 477.296C1111.96 476.144 1112.09 474.992 1112.09 473.84V464.24C1112.09 463.088 1111.96 461.936 1111.7 460.784C1111.51 459.632 1111.06 458.608 1110.36 457.712C1109.65 456.752 1108.76 456.048 1107.67 455.6C1106.58 455.088 1105.46 454.832 1104.31 454.832C1103.16 454.832 1102.04 455.088 1100.95 455.6C1099.86 456.048 1098.97 456.752 1098.26 457.712C1097.56 458.608 1097.08 459.632 1096.82 460.784C1096.63 461.936 1096.53 463.088 1096.53 464.24V473.84C1096.53 474.992 1096.63 476.144 1096.82 477.296C1097.08 478.448 1097.56 479.504 1098.26 480.464C1098.97 481.36 1099.86 482.064 1100.95 482.576C1102.04 483.024 1103.16 483.248 1104.31 483.248ZM1145.65 494V444.08H1159.57V452.912C1160.14 451.568 1160.82 450.288 1161.58 449.072C1162.42 447.856 1163.38 446.8 1164.46 445.904C1165.62 445.008 1166.9 444.368 1168.3 443.984C1169.71 443.536 1171.12 443.312 1172.53 443.312C1174 443.312 1175.41 443.536 1176.75 443.984C1178.16 444.432 1179.38 445.136 1180.4 446.096C1181.42 447.056 1182.26 448.208 1182.9 449.552C1183.54 450.832 1184.02 452.176 1184.34 453.584C1184.72 454.928 1184.98 456.304 1185.1 457.712C1185.23 459.12 1185.3 460.528 1185.3 461.936H1171.28C1171.28 461.168 1171.22 460.4 1171.09 459.632C1171.02 458.8 1170.83 458.032 1170.51 457.328C1170.19 456.56 1169.68 455.952 1168.98 455.504C1168.27 455.056 1167.54 454.832 1166.77 454.832C1165.87 454.832 1165.01 455.056 1164.18 455.504C1163.34 455.888 1162.64 456.464 1162.06 457.232C1161.55 457.936 1161.14 458.704 1160.82 459.536C1160.5 460.368 1160.24 461.232 1160.05 462.128C1159.86 463.024 1159.73 463.92 1159.66 464.816C1159.6 465.712 1159.57 466.608 1159.57 467.504V494H1145.65ZM1219.05 494.768C1217.13 494.768 1215.21 494.608 1213.29 494.288C1211.37 494.032 1209.51 493.52 1207.72 492.752C1205.99 491.92 1204.39 490.832 1202.92 489.488C1201.51 488.144 1200.33 486.64 1199.37 484.976C1198.47 483.312 1197.83 481.52 1197.45 479.6C1197.07 477.68 1196.87 475.76 1196.87 473.84V464.24C1196.87 462.32 1197.07 460.4 1197.45 458.48C1197.83 456.56 1198.47 454.768 1199.37 453.104C1200.33 451.44 1201.51 449.936 1202.92 448.592C1204.39 447.248 1205.99 446.192 1207.72 445.424C1209.51 444.592 1211.37 444.048 1213.29 443.792C1215.21 443.472 1217.13 443.312 1219.05 443.312C1220.97 443.312 1222.89 443.472 1224.81 443.792C1226.73 444.048 1228.55 444.592 1230.28 445.424C1232.07 446.192 1233.67 447.248 1235.08 448.592C1236.55 449.936 1237.74 451.44 1238.63 453.104C1239.59 454.768 1240.27 456.56 1240.65 458.48C1241.03 460.4 1241.23 462.32 1241.23 464.24V473.84C1241.23 475.76 1241.03 477.68 1240.65 479.6C1240.27 481.52 1239.59 483.312 1238.63 484.976C1237.74 486.64 1236.55 488.144 1235.08 489.488C1233.67 490.832 1232.07 491.92 1230.28 492.752C1228.55 493.52 1226.73 494.032 1224.81 494.288C1222.89 494.608 1220.97 494.768 1219.05 494.768ZM1219.05 483.248C1220.2 483.248 1221.35 483.024 1222.51 482.576C1223.66 482.128 1224.59 481.456 1225.29 480.56C1226.06 479.6 1226.57 478.544 1226.83 477.392C1227.08 476.176 1227.21 474.992 1227.21 473.84V464.24C1227.21 463.088 1227.08 461.936 1226.83 460.784C1226.57 459.568 1226.06 458.512 1225.29 457.616C1224.59 456.656 1223.66 455.952 1222.51 455.504C1221.35 455.056 1220.2 454.832 1219.05 454.832C1217.9 454.832 1216.75 455.056 1215.59 455.504C1214.44 455.952 1213.48 456.656 1212.71 457.616C1212.01 458.512 1211.53 459.568 1211.27 460.784C1211.02 461.936 1210.89 463.088 1210.89 464.24V473.84C1210.89 474.992 1211.02 476.176 1211.27 477.392C1211.53 478.544 1212.01 479.6 1212.71 480.56C1213.48 481.456 1214.44 482.128 1215.59 482.576C1216.75 483.024 1217.9 483.248 1219.05 483.248ZM1267.97 515.408C1266.24 515.408 1264.55 515.312 1262.88 515.12C1261.22 514.928 1259.59 514.544 1257.99 513.968C1256.39 513.392 1254.85 512.624 1253.38 511.664C1251.97 510.704 1250.76 509.552 1249.73 508.208C1248.71 506.864 1247.94 505.36 1247.43 503.696C1246.85 502.096 1246.53 500.464 1246.47 498.8H1260.48C1260.48 499.632 1260.71 500.4 1261.16 501.104C1261.67 501.872 1262.28 502.448 1262.98 502.832C1263.75 503.28 1264.55 503.568 1265.38 503.696C1266.28 503.824 1267.14 503.888 1267.97 503.888C1268.8 503.888 1269.6 503.76 1270.37 503.504C1271.2 503.248 1271.94 502.832 1272.58 502.256C1273.22 501.68 1273.73 501.008 1274.12 500.24C1274.5 499.536 1274.82 498.768 1275.08 497.936C1275.33 497.168 1275.49 496.336 1275.56 495.44C1275.62 494.608 1275.65 493.776 1275.65 492.944V455.6H1263.36V444.08H1289.67V492.944C1289.67 494.928 1289.51 496.88 1289.19 498.8C1288.87 500.784 1288.26 502.672 1287.36 504.464C1286.53 506.256 1285.41 507.888 1284 509.36C1282.66 510.832 1281.12 512.016 1279.4 512.912C1277.67 513.872 1275.81 514.512 1273.83 514.832C1271.91 515.216 1269.96 515.408 1267.97 515.408ZM1281.89 438.32C1280.74 438.32 1279.59 438.16 1278.44 437.84C1277.28 437.456 1276.29 436.88 1275.46 436.112C1274.69 435.28 1274.12 434.288 1273.73 433.136C1273.41 431.984 1273.25 430.832 1273.25 429.68C1273.25 428.528 1273.41 427.376 1273.73 426.224C1274.12 425.072 1274.69 424.112 1275.46 423.344C1276.29 422.512 1277.28 421.936 1278.44 421.616C1279.59 421.232 1280.74 421.04 1281.89 421.04C1283.04 421.04 1284.2 421.232 1285.35 421.616C1286.5 421.936 1287.46 422.512 1288.23 423.344C1289.06 424.112 1289.64 425.072 1289.96 426.224C1290.34 427.376 1290.53 428.528 1290.53 429.68C1290.53 430.832 1290.34 431.984 1289.96 433.136C1289.64 434.288 1289.06 435.28 1288.23 436.112C1287.46 436.88 1286.5 437.456 1285.35 437.84C1284.2 438.16 1283.04 438.32 1281.89 438.32ZM1334.18 494.768C1332.26 494.768 1330.34 494.608 1328.42 494.288C1326.5 494.032 1324.64 493.488 1322.85 492.656C1321.12 491.824 1319.52 490.768 1318.05 489.488C1316.64 488.144 1315.46 486.64 1314.5 484.976C1313.6 483.312 1312.96 481.52 1312.58 479.6C1312.19 477.68 1312 475.76 1312 473.84V464.24C1312 462.32 1312.19 460.4 1312.58 458.48C1312.96 456.56 1313.6 454.768 1314.5 453.104C1315.46 451.44 1316.64 449.936 1318.05 448.592C1319.52 447.248 1321.12 446.192 1322.85 445.424C1324.64 444.592 1326.5 444.048 1328.42 443.792C1330.34 443.472 1332.26 443.312 1334.18 443.312C1336.1 443.312 1338.02 443.472 1339.94 443.792C1341.86 444.048 1343.68 444.592 1345.41 445.424C1347.2 446.192 1348.8 447.248 1350.21 448.592C1351.68 449.936 1352.86 451.44 1353.76 453.104C1354.72 454.768 1355.39 456.56 1355.78 458.48C1356.16 460.4 1356.35 462.32 1356.35 464.24V474.32H1324.96C1324.96 475.6 1325.15 476.88 1325.54 478.16C1325.92 479.376 1326.53 480.464 1327.36 481.424C1328.19 482.32 1329.22 482.992 1330.43 483.44C1331.65 483.888 1332.9 484.112 1334.18 484.112C1335.14 484.112 1336.1 484.048 1337.06 483.92C1338.08 483.792 1339.01 483.536 1339.84 483.152C1340.74 482.704 1341.5 482.096 1342.14 481.328C1342.85 480.496 1343.2 479.6 1343.2 478.64H1356.16C1356.16 480.368 1355.84 482.032 1355.2 483.632C1354.62 485.232 1353.79 486.704 1352.7 488.048C1351.62 489.328 1350.34 490.416 1348.86 491.312C1347.39 492.208 1345.82 492.912 1344.16 493.424C1342.56 493.936 1340.9 494.288 1339.17 494.48C1337.5 494.672 1335.84 494.768 1334.18 494.768ZM1343.39 463.76C1343.39 462.48 1343.2 461.232 1342.82 460.016C1342.43 458.736 1341.82 457.648 1340.99 456.752C1340.16 455.792 1339.14 455.088 1337.92 454.64C1336.7 454.192 1335.46 453.968 1334.18 453.968C1332.9 453.968 1331.65 454.192 1330.43 454.64C1329.22 455.088 1328.19 455.792 1327.36 456.752C1326.53 457.648 1325.92 458.736 1325.54 460.016C1325.15 461.232 1324.96 462.48 1324.96 463.76H1343.39ZM1391.45 494.768C1389.53 494.768 1387.61 494.608 1385.69 494.288C1383.83 493.968 1382.01 493.424 1380.22 492.656C1378.49 491.824 1376.92 490.768 1375.51 489.488C1374.11 488.144 1372.92 486.64 1371.96 484.976C1371.07 483.248 1370.43 481.456 1370.04 479.6C1369.72 477.68 1369.56 475.76 1369.56 473.84V464.24C1369.56 462.32 1369.72 460.432 1370.04 458.576C1370.43 456.656 1371.07 454.864 1371.96 453.2C1372.92 451.472 1374.11 449.968 1375.51 448.688C1376.92 447.344 1378.49 446.288 1380.22 445.52C1382.01 444.688 1383.83 444.112 1385.69 443.792C1387.61 443.472 1389.53 443.312 1391.45 443.312C1393.24 443.312 1395.03 443.44 1396.83 443.696C1398.68 443.952 1400.44 444.432 1402.11 445.136C1403.77 445.776 1405.31 446.672 1406.71 447.824C1408.19 448.976 1409.4 450.32 1410.36 451.856C1411.39 453.392 1412.12 455.056 1412.57 456.848C1413.08 458.576 1413.34 460.336 1413.34 462.128V462.8H1399.32V462.512C1399.32 461.488 1399.13 460.464 1398.75 459.44C1398.43 458.416 1397.88 457.552 1397.11 456.848C1396.41 456.144 1395.55 455.632 1394.52 455.312C1393.5 454.992 1392.47 454.832 1391.45 454.832C1390.3 454.832 1389.15 455.056 1387.99 455.504C1386.91 455.952 1386.01 456.656 1385.31 457.616C1384.67 458.576 1384.22 459.632 1383.96 460.784C1383.71 461.936 1383.58 463.088 1383.58 464.24V473.84C1383.58 474.992 1383.71 476.144 1383.96 477.296C1384.22 478.448 1384.67 479.504 1385.31 480.464C1386.01 481.424 1386.91 482.128 1387.99 482.576C1389.15 483.024 1390.3 483.248 1391.45 483.248C1392.47 483.248 1393.5 483.088 1394.52 482.768C1395.55 482.448 1396.41 481.936 1397.11 481.232C1397.88 480.528 1398.43 479.664 1398.75 478.64C1399.13 477.616 1399.32 476.592 1399.32 475.568V475.28H1413.34V475.952C1413.34 477.744 1413.08 479.536 1412.57 481.328C1412.12 483.056 1411.39 484.688 1410.36 486.224C1409.4 487.76 1408.19 489.104 1406.71 490.256C1405.31 491.408 1403.77 492.336 1402.11 493.04C1400.44 493.68 1398.68 494.128 1396.83 494.384C1395.03 494.64 1393.24 494.768 1391.45 494.768ZM1455.44 494.768C1453.65 494.768 1451.86 494.544 1450.07 494.096C1448.34 493.648 1446.74 492.912 1445.27 491.888C1443.86 490.8 1442.61 489.52 1441.52 488.048C1440.5 486.512 1439.67 484.912 1439.03 483.248C1438.45 481.52 1438.07 479.792 1437.88 478.064C1437.68 476.272 1437.59 474.448 1437.59 472.592V455.6H1429.43V444.08H1437.59V423.44H1451.51V444.08H1468.12V455.6H1451.51V472.592C1451.51 473.296 1451.51 474 1451.51 474.704C1451.57 475.344 1451.64 476.016 1451.7 476.72C1451.83 477.424 1451.96 478.096 1452.08 478.736C1452.21 479.376 1452.4 480.016 1452.66 480.656C1452.92 481.296 1453.27 481.904 1453.72 482.48C1454.23 482.992 1454.8 483.248 1455.44 483.248C1456.28 483.248 1456.95 482.928 1457.46 482.288C1458.04 481.648 1458.45 480.944 1458.71 480.176C1458.96 479.408 1459.12 478.64 1459.19 477.872C1459.32 477.04 1459.38 476.24 1459.38 475.472V475.28H1473.4V475.664C1473.4 477.328 1473.24 478.96 1472.92 480.56C1472.6 482.16 1472.08 483.728 1471.38 485.264C1470.68 486.736 1469.78 488.112 1468.69 489.392C1467.6 490.672 1466.36 491.728 1464.95 492.56C1463.54 493.328 1462 493.872 1460.34 494.192C1458.74 494.576 1457.11 494.768 1455.44 494.768Z" fill="white"/>
</svg>
